G75*
%MOIN*%
%OFA0B0*%
%FSLAX25Y25*%
%IPPOS*%
%LPD*%
%AMOC8*
5,1,8,0,0,1.08239X$1,22.5*
%
%ADD10R,0.06250X0.00250*%
%ADD11R,0.01500X0.00250*%
%ADD12R,0.01250X0.00250*%
%ADD13R,0.06000X0.00250*%
%ADD14R,0.05750X0.00250*%
%ADD15R,0.06500X0.00250*%
%ADD16R,0.01750X0.00250*%
%ADD17R,0.06750X0.00250*%
%ADD18R,0.07250X0.00250*%
%ADD19R,0.07000X0.00250*%
%ADD20R,0.07500X0.00250*%
%ADD21R,0.08000X0.00250*%
%ADD22R,0.02000X0.00250*%
%ADD23R,0.00250X0.00250*%
%ADD24R,0.07750X0.00250*%
%ADD25R,0.05250X0.00250*%
%ADD26R,0.04000X0.00250*%
%ADD27R,0.05500X0.00250*%
%ADD28R,0.05000X0.00250*%
%ADD29R,0.02250X0.00250*%
%ADD30R,0.03000X0.00250*%
%ADD31R,0.03250X0.00250*%
%ADD32R,0.04750X0.00250*%
%ADD33R,0.02750X0.00250*%
%ADD34R,0.02500X0.00250*%
%ADD35R,0.01000X0.00250*%
%ADD36R,0.00500X0.00250*%
%ADD37R,0.00750X0.00250*%
%ADD38R,0.08250X0.00250*%
%ADD39R,0.08500X0.00250*%
%ADD40R,0.12000X0.00250*%
%ADD41R,0.12500X0.00250*%
%ADD42R,0.12750X0.00250*%
%ADD43R,0.03750X0.00250*%
%ADD44R,0.03500X0.00250*%
%ADD45R,0.00600X0.00100*%
%ADD46R,0.01200X0.00100*%
%ADD47R,0.00500X0.00100*%
%ADD48R,0.01900X0.00100*%
%ADD49R,0.01400X0.00100*%
%ADD50R,0.00700X0.00100*%
%ADD51R,0.02000X0.00100*%
%ADD52R,0.01600X0.00100*%
%ADD53R,0.00800X0.00100*%
%ADD54R,0.00100X0.00100*%
%ADD55R,0.00900X0.00100*%
%ADD56R,0.01000X0.00100*%
%ADD57R,0.01800X0.00100*%
%ADD58R,0.00400X0.00100*%
%ADD59R,0.03200X0.00100*%
%ADD60R,0.01700X0.00100*%
%ADD61R,0.01500X0.00100*%
%ADD62R,0.02200X0.00100*%
%ADD63R,0.04900X0.00100*%
%ADD64R,0.02600X0.00100*%
%ADD65R,0.02100X0.00100*%
%ADD66R,0.05200X0.00100*%
%ADD67R,0.02700X0.00100*%
%ADD68R,0.02300X0.00100*%
%ADD69R,0.05400X0.00100*%
%ADD70R,0.01100X0.00100*%
%ADD71R,0.02800X0.00100*%
%ADD72R,0.05500X0.00100*%
%ADD73R,0.02400X0.00100*%
%ADD74R,0.05600X0.00100*%
%ADD75R,0.02900X0.00100*%
%ADD76R,0.02500X0.00100*%
%ADD77R,0.05700X0.00100*%
%ADD78R,0.05800X0.00100*%
%ADD79R,0.03000X0.00100*%
%ADD80R,0.01300X0.00100*%
%ADD81R,0.00200X0.00100*%
%ADD82R,0.03700X0.00100*%
%ADD83R,0.06200X0.00100*%
%ADD84R,0.03800X0.00100*%
%ADD85R,0.03600X0.00100*%
%ADD86R,0.06100X0.00100*%
%ADD87R,0.06000X0.00100*%
%ADD88R,0.03400X0.00100*%
%ADD89C,0.00400*%
%ADD90C,0.00500*%
D10*
X0085495Y0023906D03*
X0094745Y0027406D03*
X0104495Y0027406D03*
X0114495Y0021156D03*
X0122745Y0017906D03*
X0123995Y0021156D03*
X0132245Y0017906D03*
X0104245Y0012156D03*
X0104245Y0011156D03*
D11*
X0101870Y0012406D03*
X0101870Y0012656D03*
X0101870Y0012906D03*
X0101870Y0013156D03*
X0101870Y0013406D03*
X0101870Y0013656D03*
X0101870Y0013906D03*
X0101870Y0014156D03*
X0101870Y0014406D03*
X0101870Y0014656D03*
X0101870Y0014906D03*
X0101870Y0015156D03*
X0101870Y0015406D03*
X0101870Y0015656D03*
X0101870Y0015906D03*
X0101870Y0016156D03*
X0101870Y0016406D03*
X0101870Y0016656D03*
X0101870Y0016906D03*
X0101870Y0017156D03*
X0101870Y0017406D03*
X0101870Y0017656D03*
X0101870Y0017906D03*
X0101870Y0018156D03*
X0101870Y0018406D03*
X0101870Y0018656D03*
X0101870Y0018906D03*
X0102120Y0020656D03*
X0102120Y0020906D03*
X0102120Y0021156D03*
X0102120Y0021406D03*
X0102120Y0021656D03*
X0102120Y0021906D03*
X0102120Y0022156D03*
X0102120Y0022406D03*
X0102120Y0022656D03*
X0102120Y0022906D03*
X0102120Y0023156D03*
X0102120Y0023406D03*
X0102120Y0024906D03*
X0102120Y0025156D03*
X0102120Y0025406D03*
X0102120Y0025656D03*
X0102120Y0025906D03*
X0102120Y0026156D03*
X0098120Y0026156D03*
X0098120Y0025156D03*
X0098120Y0023156D03*
X0092370Y0023156D03*
X0092370Y0023406D03*
X0092370Y0022906D03*
X0092370Y0022656D03*
X0092370Y0022406D03*
X0092370Y0022156D03*
X0092370Y0021906D03*
X0092370Y0021656D03*
X0092370Y0021406D03*
X0092370Y0021156D03*
X0092370Y0020906D03*
X0092370Y0020656D03*
X0089370Y0020906D03*
X0089120Y0021406D03*
X0088870Y0021906D03*
X0088620Y0022406D03*
X0088370Y0022906D03*
X0087370Y0024906D03*
X0087120Y0025406D03*
X0086870Y0025906D03*
X0086620Y0026406D03*
X0084620Y0026656D03*
X0084370Y0026156D03*
X0084120Y0025656D03*
X0083870Y0025156D03*
X0082870Y0023156D03*
X0082620Y0022656D03*
X0082370Y0022156D03*
X0082120Y0021656D03*
X0081870Y0021156D03*
X0092370Y0024906D03*
X0092370Y0025156D03*
X0092370Y0025406D03*
X0092370Y0025656D03*
X0092370Y0025906D03*
X0092370Y0026156D03*
X0107870Y0026156D03*
X0107870Y0025156D03*
X0107870Y0023156D03*
X0111620Y0023156D03*
X0111620Y0023406D03*
X0111620Y0023656D03*
X0111620Y0023906D03*
X0111620Y0024156D03*
X0111620Y0024406D03*
X0111620Y0024656D03*
X0111620Y0024906D03*
X0111620Y0025156D03*
X0111620Y0025406D03*
X0111620Y0025656D03*
X0111620Y0025906D03*
X0111620Y0022906D03*
X0111620Y0022656D03*
X0111620Y0022406D03*
X0117370Y0022156D03*
X0121120Y0022406D03*
X0121120Y0022656D03*
X0121120Y0022906D03*
X0121120Y0023156D03*
X0121120Y0023406D03*
X0121120Y0023656D03*
X0121120Y0023906D03*
X0121120Y0024156D03*
X0121120Y0024406D03*
X0121120Y0024656D03*
X0121120Y0024906D03*
X0121120Y0025156D03*
X0121120Y0025406D03*
X0121120Y0025656D03*
X0121120Y0025906D03*
X0121120Y0026156D03*
X0121120Y0026406D03*
X0121120Y0026656D03*
X0121120Y0026906D03*
X0121120Y0027156D03*
X0121120Y0027406D03*
X0124120Y0027406D03*
X0124120Y0027156D03*
X0124120Y0026906D03*
X0124120Y0026656D03*
X0124120Y0026406D03*
X0124120Y0026156D03*
X0124120Y0025906D03*
X0124120Y0025656D03*
X0124120Y0025406D03*
X0124120Y0025156D03*
X0124120Y0024906D03*
X0124120Y0024656D03*
X0124120Y0024406D03*
X0124120Y0024156D03*
X0124120Y0023906D03*
X0124120Y0023656D03*
X0124120Y0023406D03*
X0124120Y0023156D03*
X0124120Y0022906D03*
X0124120Y0022656D03*
X0124120Y0022406D03*
X0126870Y0022156D03*
X0131370Y0024656D03*
X0131370Y0024906D03*
X0131370Y0025156D03*
X0131370Y0025406D03*
X0131370Y0025656D03*
X0131370Y0025906D03*
X0131370Y0026156D03*
X0131370Y0026406D03*
X0133870Y0023906D03*
X0133870Y0020906D03*
X0135620Y0016656D03*
X0135620Y0013656D03*
X0135620Y0013406D03*
X0135620Y0012656D03*
X0128870Y0012906D03*
X0128870Y0013156D03*
X0126120Y0013656D03*
X0126120Y0012656D03*
X0126120Y0016656D03*
X0128870Y0016406D03*
X0128870Y0016156D03*
X0128870Y0015906D03*
X0128870Y0015656D03*
X0120370Y0015656D03*
X0120370Y0015906D03*
X0120370Y0016156D03*
X0120370Y0016406D03*
X0120370Y0016656D03*
X0120370Y0015406D03*
X0120370Y0013906D03*
X0120370Y0013656D03*
X0120370Y0013406D03*
X0120370Y0013156D03*
X0120370Y0012906D03*
X0120370Y0012656D03*
X0120370Y0012406D03*
X0116370Y0016656D03*
X0110620Y0016406D03*
X0110620Y0016156D03*
X0110620Y0015906D03*
X0110620Y0015656D03*
X0110620Y0015406D03*
X0110620Y0013906D03*
X0110620Y0013656D03*
X0110620Y0013406D03*
X0110620Y0013156D03*
X0110620Y0012906D03*
X0110620Y0012656D03*
X0110620Y0012406D03*
X0110620Y0012156D03*
X0110620Y0011906D03*
X0110620Y0011656D03*
X0110620Y0011406D03*
X0110620Y0011156D03*
X0117370Y0026156D03*
X0130620Y0037406D03*
X0130620Y0037656D03*
X0130620Y0037906D03*
X0130620Y0038156D03*
X0130620Y0038406D03*
X0130620Y0038656D03*
X0130620Y0038906D03*
X0130620Y0039156D03*
X0136120Y0039656D03*
X0138120Y0037406D03*
X0136120Y0036906D03*
X0141620Y0037406D03*
X0141870Y0038656D03*
X0141620Y0038906D03*
X0141620Y0039156D03*
X0141620Y0039406D03*
X0142370Y0031656D03*
X0142120Y0026406D03*
X0142120Y0026156D03*
X0142120Y0025656D03*
X0142120Y0025406D03*
X0142120Y0025156D03*
X0142120Y0024656D03*
D12*
X0141995Y0024406D03*
X0139495Y0023906D03*
X0139495Y0020906D03*
X0135745Y0016156D03*
X0131495Y0024406D03*
X0131495Y0026656D03*
X0131495Y0026906D03*
X0133995Y0027156D03*
X0126995Y0027406D03*
X0141995Y0026906D03*
X0141995Y0026656D03*
X0141745Y0037906D03*
X0141745Y0038156D03*
X0141745Y0038406D03*
X0136245Y0039406D03*
X0134245Y0038906D03*
X0136245Y0037156D03*
X0107995Y0020656D03*
X0098245Y0020656D03*
X0089495Y0020656D03*
X0081745Y0020656D03*
X0116495Y0011156D03*
D13*
X0122620Y0011156D03*
X0113620Y0017656D03*
X0114620Y0027156D03*
X0085620Y0024156D03*
D14*
X0085495Y0024406D03*
X0132245Y0011156D03*
D15*
X0132370Y0011406D03*
X0131620Y0015156D03*
X0122870Y0011406D03*
X0113620Y0017406D03*
X0114620Y0021406D03*
X0124120Y0021406D03*
X0114620Y0026906D03*
X0104370Y0011906D03*
X0104370Y0011656D03*
X0104370Y0011406D03*
X0085620Y0023656D03*
D16*
X0087245Y0025156D03*
X0086995Y0025656D03*
X0086745Y0026156D03*
X0086495Y0026656D03*
X0085495Y0028406D03*
X0084495Y0026406D03*
X0084245Y0025906D03*
X0083995Y0025406D03*
X0083745Y0024906D03*
X0082995Y0023406D03*
X0082745Y0022906D03*
X0082495Y0022406D03*
X0082245Y0021906D03*
X0081995Y0021406D03*
X0081745Y0020906D03*
X0087995Y0023406D03*
X0088245Y0023156D03*
X0088495Y0022656D03*
X0088745Y0022156D03*
X0088995Y0021656D03*
X0089245Y0021156D03*
X0098245Y0021156D03*
X0098245Y0021406D03*
X0098245Y0021656D03*
X0098245Y0021906D03*
X0098245Y0022156D03*
X0098245Y0022406D03*
X0098245Y0022656D03*
X0098245Y0022906D03*
X0098245Y0020906D03*
X0097995Y0024906D03*
X0098245Y0025406D03*
X0098245Y0025656D03*
X0098245Y0025906D03*
X0107745Y0024906D03*
X0107995Y0025406D03*
X0107995Y0025656D03*
X0107995Y0025906D03*
X0107995Y0022906D03*
X0107995Y0022656D03*
X0107995Y0022406D03*
X0107995Y0022156D03*
X0107995Y0021906D03*
X0107995Y0021656D03*
X0107995Y0021406D03*
X0107995Y0021156D03*
X0107995Y0020906D03*
X0111745Y0022156D03*
X0117245Y0021906D03*
X0117495Y0022406D03*
X0117495Y0022656D03*
X0117495Y0022906D03*
X0117495Y0023156D03*
X0117495Y0023406D03*
X0117495Y0023656D03*
X0117495Y0023906D03*
X0117495Y0024156D03*
X0117495Y0024406D03*
X0117495Y0024656D03*
X0117495Y0024906D03*
X0117495Y0025156D03*
X0117495Y0025406D03*
X0117495Y0025656D03*
X0117495Y0025906D03*
X0121245Y0022156D03*
X0122495Y0020656D03*
X0123995Y0022156D03*
X0125495Y0020656D03*
X0126745Y0021906D03*
X0126995Y0022406D03*
X0126995Y0022656D03*
X0126995Y0022906D03*
X0126995Y0023156D03*
X0126995Y0023406D03*
X0126995Y0023656D03*
X0126995Y0023906D03*
X0126995Y0024156D03*
X0126995Y0024406D03*
X0126995Y0024656D03*
X0126995Y0024906D03*
X0126995Y0025156D03*
X0126995Y0025406D03*
X0126995Y0025656D03*
X0126995Y0025906D03*
X0126995Y0026156D03*
X0126995Y0026406D03*
X0126995Y0026656D03*
X0126995Y0026906D03*
X0126995Y0027156D03*
X0131245Y0031656D03*
X0130995Y0031906D03*
X0130995Y0033406D03*
X0130745Y0037156D03*
X0130745Y0039406D03*
X0130745Y0039656D03*
X0134245Y0038656D03*
X0134245Y0037656D03*
X0134245Y0037406D03*
X0136245Y0039906D03*
X0138245Y0038656D03*
X0141495Y0037156D03*
X0141495Y0036906D03*
X0141745Y0037656D03*
X0142245Y0033406D03*
X0142495Y0033156D03*
X0141995Y0025906D03*
X0141995Y0024906D03*
X0139495Y0025156D03*
X0133995Y0025156D03*
X0135745Y0016406D03*
X0135745Y0013156D03*
X0135745Y0012906D03*
X0135495Y0012406D03*
X0128995Y0012656D03*
X0126245Y0012906D03*
X0126245Y0013156D03*
X0126245Y0013406D03*
X0125995Y0012406D03*
X0125995Y0015406D03*
X0126245Y0015656D03*
X0126245Y0015906D03*
X0126245Y0016156D03*
X0126245Y0016406D03*
X0128995Y0016656D03*
X0128995Y0015406D03*
X0116495Y0015406D03*
X0116495Y0015656D03*
X0116495Y0015906D03*
X0116495Y0016156D03*
X0116495Y0016406D03*
X0116495Y0013906D03*
X0116495Y0013656D03*
X0116495Y0013406D03*
X0116495Y0013156D03*
X0116495Y0012906D03*
X0116495Y0012656D03*
X0116495Y0012406D03*
X0116495Y0012156D03*
X0116495Y0011906D03*
X0116495Y0011656D03*
X0116495Y0011406D03*
X0110745Y0016656D03*
X0111745Y0026156D03*
D17*
X0114495Y0026656D03*
X0104745Y0027156D03*
X0094995Y0027156D03*
X0113495Y0017156D03*
X0122995Y0017656D03*
X0132745Y0014156D03*
X0122995Y0011656D03*
D18*
X0123245Y0012156D03*
X0123245Y0014156D03*
X0123245Y0015156D03*
X0123245Y0016906D03*
X0131995Y0014906D03*
X0132245Y0014656D03*
X0132495Y0014406D03*
X0132245Y0011656D03*
X0104995Y0023656D03*
X0104995Y0024656D03*
X0104995Y0026406D03*
X0095245Y0026406D03*
X0095245Y0024656D03*
X0095245Y0023656D03*
D19*
X0095120Y0023906D03*
X0095120Y0024156D03*
X0095120Y0024406D03*
X0095120Y0026656D03*
X0095120Y0026906D03*
X0104870Y0026906D03*
X0104870Y0026656D03*
X0104870Y0024406D03*
X0104870Y0024156D03*
X0104870Y0023906D03*
X0114620Y0021656D03*
X0114620Y0026406D03*
X0124120Y0021656D03*
X0123120Y0017406D03*
X0123120Y0017156D03*
X0123120Y0014906D03*
X0123120Y0014656D03*
X0123120Y0014406D03*
X0123120Y0011906D03*
X0113620Y0016906D03*
X0132370Y0017656D03*
D20*
X0132370Y0017406D03*
X0132370Y0011906D03*
X0113620Y0014156D03*
X0113620Y0014406D03*
X0113620Y0014656D03*
X0113620Y0014906D03*
X0113620Y0015156D03*
X0136620Y0027906D03*
D21*
X0132370Y0016906D03*
X0132370Y0012156D03*
D22*
X0129120Y0012406D03*
X0125870Y0013906D03*
X0135370Y0013906D03*
X0121370Y0021906D03*
X0111870Y0021906D03*
X0107620Y0023406D03*
X0097870Y0023406D03*
X0085620Y0028156D03*
X0130870Y0032156D03*
X0130870Y0032656D03*
X0130870Y0032906D03*
X0131120Y0033156D03*
X0130870Y0036656D03*
X0130870Y0036906D03*
X0134120Y0037906D03*
X0134120Y0038406D03*
X0136120Y0036656D03*
X0138120Y0037656D03*
X0138120Y0037906D03*
X0138120Y0038156D03*
X0138120Y0038406D03*
X0141370Y0039906D03*
X0141620Y0039656D03*
X0142620Y0032656D03*
X0142620Y0032156D03*
X0142370Y0031906D03*
X0139620Y0024906D03*
X0139620Y0024156D03*
X0133870Y0024156D03*
X0133870Y0024656D03*
X0133870Y0024906D03*
X0130870Y0039906D03*
D23*
X0137995Y0039156D03*
X0141745Y0033656D03*
X0142245Y0033656D03*
X0142745Y0033656D03*
X0139745Y0027406D03*
X0139245Y0027406D03*
X0138495Y0020906D03*
X0132745Y0020906D03*
X0135745Y0015906D03*
X0133995Y0013906D03*
X0133495Y0013906D03*
X0132995Y0013906D03*
X0132495Y0013906D03*
X0131995Y0013906D03*
X0131495Y0013906D03*
X0130995Y0013906D03*
X0130495Y0013906D03*
X0124495Y0013906D03*
X0123995Y0013906D03*
X0123495Y0013906D03*
X0122995Y0013906D03*
X0122495Y0013906D03*
X0121995Y0013906D03*
X0121495Y0013906D03*
X0115245Y0013906D03*
X0114745Y0013906D03*
X0114245Y0013906D03*
X0113745Y0013906D03*
X0113245Y0013906D03*
X0112745Y0013906D03*
X0112245Y0013906D03*
X0111745Y0013906D03*
X0106245Y0023406D03*
X0105745Y0023406D03*
X0105245Y0023406D03*
X0104745Y0023406D03*
X0104245Y0023406D03*
X0103745Y0023406D03*
X0103245Y0023406D03*
X0096495Y0023406D03*
X0095995Y0023406D03*
X0095495Y0023406D03*
X0094995Y0023406D03*
X0094495Y0023406D03*
X0093995Y0023406D03*
X0093495Y0023406D03*
X0086745Y0023406D03*
X0086245Y0023406D03*
X0085745Y0023406D03*
X0085245Y0023406D03*
X0084745Y0023406D03*
X0084245Y0023406D03*
X0130745Y0033656D03*
X0131245Y0033656D03*
X0131745Y0033656D03*
D24*
X0136745Y0033906D03*
X0132245Y0017156D03*
D25*
X0114495Y0027406D03*
X0113495Y0017906D03*
D26*
X0113620Y0018156D03*
X0114620Y0027656D03*
D27*
X0114620Y0020906D03*
X0122620Y0018156D03*
X0104370Y0027656D03*
X0094620Y0027656D03*
X0085620Y0024656D03*
D28*
X0132370Y0018156D03*
X0136120Y0040656D03*
D29*
X0141245Y0040156D03*
X0134245Y0038156D03*
X0130995Y0040156D03*
X0141495Y0036656D03*
X0142495Y0032906D03*
X0142495Y0032406D03*
X0130995Y0032406D03*
X0139495Y0024656D03*
X0139495Y0024406D03*
X0133995Y0024406D03*
X0133745Y0019406D03*
X0139245Y0019406D03*
X0123995Y0021906D03*
X0085495Y0027906D03*
D30*
X0085620Y0027156D03*
X0131370Y0036156D03*
X0141120Y0040406D03*
X0139370Y0020656D03*
X0139370Y0020406D03*
X0139370Y0020156D03*
X0139370Y0019906D03*
X0139370Y0019656D03*
X0133620Y0019656D03*
X0133620Y0019906D03*
X0133620Y0020406D03*
D31*
X0133745Y0020156D03*
X0085495Y0026906D03*
D32*
X0114495Y0020656D03*
D33*
X0125495Y0020906D03*
X0133745Y0020656D03*
X0140995Y0036156D03*
X0131245Y0040406D03*
X0085495Y0027406D03*
D34*
X0085620Y0027656D03*
X0122620Y0020906D03*
X0131120Y0036406D03*
X0136120Y0036406D03*
X0141120Y0036406D03*
X0136120Y0040156D03*
D35*
X0136120Y0039156D03*
X0136120Y0038906D03*
X0136120Y0037406D03*
X0134120Y0037156D03*
X0138120Y0037156D03*
X0138120Y0038906D03*
X0142120Y0031406D03*
X0139620Y0027156D03*
X0139620Y0026906D03*
X0139620Y0026656D03*
X0139620Y0026406D03*
X0139620Y0026156D03*
X0139620Y0025906D03*
X0139620Y0025656D03*
X0139620Y0025406D03*
X0139620Y0023656D03*
X0139620Y0023406D03*
X0139620Y0023156D03*
X0139620Y0022906D03*
X0139620Y0022656D03*
X0139620Y0022406D03*
X0139620Y0022156D03*
X0139620Y0021906D03*
X0139620Y0021656D03*
X0139620Y0021406D03*
X0139620Y0021156D03*
X0133870Y0021156D03*
X0133870Y0021406D03*
X0133870Y0021656D03*
X0133870Y0021906D03*
X0133870Y0022156D03*
X0133870Y0022406D03*
X0133870Y0022656D03*
X0133870Y0022906D03*
X0133870Y0023156D03*
X0133870Y0023406D03*
X0133870Y0023656D03*
X0133870Y0025406D03*
X0133870Y0025656D03*
X0133870Y0025906D03*
X0133870Y0026156D03*
X0133870Y0026406D03*
X0133870Y0026656D03*
X0133870Y0026906D03*
X0127120Y0027656D03*
X0124120Y0027656D03*
X0121120Y0027656D03*
D36*
X0131370Y0024156D03*
X0133870Y0027406D03*
X0142120Y0024156D03*
X0136120Y0038156D03*
X0136120Y0038656D03*
D37*
X0136245Y0038406D03*
X0136245Y0037906D03*
X0136245Y0037656D03*
X0131245Y0031406D03*
X0131245Y0031156D03*
X0131245Y0030906D03*
X0131245Y0030656D03*
X0131245Y0030406D03*
X0131245Y0030156D03*
X0131245Y0029906D03*
X0131245Y0029656D03*
X0131245Y0029406D03*
X0131245Y0029156D03*
X0131245Y0028906D03*
X0131245Y0028656D03*
X0131245Y0028406D03*
X0131245Y0028156D03*
X0131245Y0027906D03*
X0131245Y0027656D03*
X0131245Y0027406D03*
X0131245Y0027156D03*
X0142245Y0027156D03*
X0142245Y0027406D03*
X0142245Y0027656D03*
X0142245Y0027906D03*
X0142245Y0028156D03*
X0142245Y0028406D03*
X0142245Y0028656D03*
X0142245Y0028906D03*
X0142245Y0029156D03*
X0142245Y0029406D03*
X0142245Y0029656D03*
X0142245Y0029906D03*
X0142245Y0030156D03*
X0142245Y0030406D03*
X0142245Y0030656D03*
X0142245Y0030906D03*
X0142245Y0031156D03*
D38*
X0136745Y0031406D03*
X0136745Y0031906D03*
X0136745Y0032406D03*
X0136745Y0032906D03*
X0136745Y0033406D03*
X0136745Y0033656D03*
X0136745Y0030906D03*
X0136745Y0030406D03*
X0136745Y0029906D03*
X0136745Y0029406D03*
X0136745Y0028906D03*
X0136745Y0028406D03*
X0136745Y0028156D03*
D39*
X0136620Y0028656D03*
X0136620Y0029156D03*
X0136620Y0029656D03*
X0136620Y0030156D03*
X0136620Y0030656D03*
X0136620Y0031156D03*
X0136620Y0031656D03*
X0136620Y0032156D03*
X0136620Y0032656D03*
X0136620Y0033156D03*
D40*
X0136120Y0034906D03*
D41*
X0136120Y0035156D03*
X0136120Y0035406D03*
X0136120Y0035906D03*
X0136120Y0040906D03*
D42*
X0136245Y0035656D03*
D43*
X0136245Y0036156D03*
D44*
X0136120Y0040406D03*
X0140620Y0040656D03*
X0131620Y0040656D03*
D45*
X0062645Y0113756D03*
X0062045Y0114256D03*
X0061945Y0114356D03*
X0061945Y0114456D03*
X0061845Y0114556D03*
X0061845Y0114656D03*
X0061845Y0114756D03*
X0061845Y0114856D03*
X0061845Y0114956D03*
X0061845Y0115056D03*
X0061845Y0115156D03*
X0061945Y0115256D03*
X0061945Y0115456D03*
X0062045Y0115556D03*
X0062645Y0116056D03*
X0063345Y0115456D03*
X0063345Y0115356D03*
X0063445Y0115156D03*
X0063445Y0115056D03*
X0063445Y0114956D03*
X0063445Y0114856D03*
X0063445Y0114756D03*
X0063445Y0114656D03*
X0063445Y0114556D03*
X0063345Y0114456D03*
X0063345Y0114356D03*
X0064445Y0114356D03*
X0064445Y0114456D03*
X0064445Y0114556D03*
X0064445Y0114656D03*
X0064445Y0114756D03*
X0064445Y0114856D03*
X0064445Y0114956D03*
X0064445Y0115056D03*
X0064445Y0115156D03*
X0064445Y0115256D03*
X0064445Y0115356D03*
X0064445Y0115856D03*
X0064445Y0115956D03*
X0065845Y0115356D03*
X0065845Y0115256D03*
X0065845Y0115156D03*
X0065845Y0115056D03*
X0065845Y0114956D03*
X0065845Y0114856D03*
X0065845Y0114756D03*
X0065845Y0114656D03*
X0065845Y0114556D03*
X0065845Y0114456D03*
X0065845Y0114356D03*
X0065845Y0114256D03*
X0065845Y0114156D03*
X0065845Y0114056D03*
X0065845Y0113956D03*
X0065845Y0113856D03*
X0067145Y0113856D03*
X0067145Y0113956D03*
X0067145Y0114056D03*
X0067145Y0114156D03*
X0067145Y0114256D03*
X0067145Y0114356D03*
X0067145Y0114456D03*
X0067145Y0114556D03*
X0067145Y0114656D03*
X0067145Y0114756D03*
X0067145Y0114856D03*
X0067145Y0114956D03*
X0067145Y0115056D03*
X0067145Y0115156D03*
X0067145Y0115256D03*
X0067145Y0115356D03*
X0067145Y0115456D03*
X0066745Y0116056D03*
X0064445Y0114256D03*
X0064445Y0114156D03*
X0064445Y0114056D03*
X0064445Y0113956D03*
X0064445Y0113856D03*
X0060945Y0114356D03*
X0060945Y0114456D03*
X0060845Y0114256D03*
X0060245Y0113756D03*
X0059545Y0114356D03*
X0059545Y0114456D03*
X0059445Y0114556D03*
X0059445Y0114656D03*
X0059445Y0114756D03*
X0059445Y0114856D03*
X0059445Y0114956D03*
X0059445Y0115056D03*
X0059445Y0115156D03*
X0059545Y0115256D03*
X0059545Y0115356D03*
X0059545Y0115456D03*
X0060845Y0115556D03*
X0060945Y0115456D03*
X0060945Y0115356D03*
X0058445Y0114256D03*
X0058445Y0114056D03*
X0058445Y0113856D03*
X0057145Y0114756D03*
X0057245Y0114956D03*
X0057245Y0115156D03*
X0057345Y0115256D03*
X0057345Y0115456D03*
X0057345Y0115556D03*
X0057445Y0115656D03*
X0057445Y0115756D03*
X0057445Y0115856D03*
X0056145Y0115956D03*
X0056145Y0115756D03*
X0054945Y0115456D03*
X0054945Y0115256D03*
X0055045Y0115156D03*
X0055045Y0115056D03*
X0055145Y0114756D03*
X0055145Y0114656D03*
X0055445Y0113856D03*
X0056845Y0113856D03*
X0054845Y0115656D03*
X0054845Y0115756D03*
X0054845Y0115856D03*
X0053845Y0115456D03*
X0053845Y0115356D03*
X0053945Y0115156D03*
X0053945Y0115056D03*
X0053945Y0114956D03*
X0053945Y0114856D03*
X0053945Y0114756D03*
X0053945Y0114656D03*
X0053945Y0114556D03*
X0053845Y0114456D03*
X0053845Y0114356D03*
X0053145Y0113756D03*
X0052445Y0114356D03*
X0052445Y0114456D03*
X0052345Y0114556D03*
X0052345Y0114656D03*
X0052345Y0114756D03*
X0052345Y0114856D03*
X0052345Y0114956D03*
X0052345Y0115056D03*
X0052345Y0115156D03*
X0052445Y0115256D03*
X0052445Y0115456D03*
X0053145Y0116056D03*
X0051545Y0115956D03*
X0050745Y0115956D03*
X0050745Y0115856D03*
X0050745Y0115156D03*
X0050745Y0115056D03*
X0050745Y0114956D03*
X0050745Y0114856D03*
X0050745Y0114756D03*
X0050745Y0114656D03*
X0050745Y0114556D03*
X0050745Y0114456D03*
X0050745Y0114356D03*
X0050745Y0114256D03*
X0050745Y0114156D03*
X0050745Y0114056D03*
X0050745Y0113956D03*
X0050745Y0113856D03*
X0049145Y0113856D03*
X0049145Y0113956D03*
X0049145Y0114056D03*
X0049145Y0114156D03*
X0049145Y0114256D03*
X0049145Y0114356D03*
X0049145Y0114456D03*
X0049145Y0114556D03*
X0049145Y0114656D03*
X0049145Y0114756D03*
X0049145Y0114856D03*
X0049145Y0114956D03*
X0049145Y0115056D03*
X0049145Y0115156D03*
X0049145Y0115856D03*
X0049145Y0115956D03*
X0049945Y0115956D03*
X0048145Y0115556D03*
X0048145Y0115456D03*
X0048145Y0115356D03*
X0048145Y0114856D03*
X0048145Y0114756D03*
X0048145Y0114656D03*
X0048145Y0114556D03*
X0048145Y0114456D03*
X0047145Y0113756D03*
X0046645Y0114256D03*
X0046645Y0114356D03*
X0046645Y0114456D03*
X0046645Y0114556D03*
X0046745Y0114656D03*
X0046745Y0115456D03*
X0046745Y0115556D03*
X0062245Y0122956D03*
D46*
X0064345Y0122556D03*
X0064645Y0121056D03*
X0064845Y0120056D03*
X0065045Y0119456D03*
X0062145Y0119456D03*
X0062645Y0115956D03*
X0062645Y0113856D03*
X0060245Y0113856D03*
X0060245Y0115956D03*
X0057345Y0119656D03*
X0057245Y0119756D03*
X0057245Y0119856D03*
X0057145Y0119956D03*
X0057145Y0120056D03*
X0057045Y0120156D03*
X0057045Y0120256D03*
X0056945Y0120356D03*
X0056845Y0120556D03*
X0056745Y0120756D03*
X0056645Y0120856D03*
X0056645Y0120956D03*
X0056545Y0121156D03*
X0056445Y0121256D03*
X0056445Y0121356D03*
X0056345Y0121456D03*
X0056345Y0121556D03*
X0053645Y0123556D03*
X0050945Y0121456D03*
X0050945Y0121356D03*
X0051045Y0121256D03*
X0051045Y0121156D03*
X0051145Y0121056D03*
X0051245Y0120856D03*
X0051345Y0120656D03*
X0051445Y0120556D03*
X0051445Y0120456D03*
X0051545Y0120356D03*
X0051545Y0120256D03*
X0051645Y0120156D03*
X0051745Y0119956D03*
X0051845Y0119756D03*
X0051945Y0119556D03*
X0052045Y0119456D03*
X0053145Y0115956D03*
X0053145Y0113856D03*
X0047145Y0113856D03*
X0047145Y0114856D03*
X0046345Y0119456D03*
X0046045Y0120556D03*
X0045945Y0121056D03*
X0043545Y0123256D03*
X0043645Y0123556D03*
X0059045Y0123556D03*
X0066845Y0122256D03*
X0066945Y0122756D03*
X0066745Y0121756D03*
X0068845Y0120956D03*
X0068945Y0120456D03*
X0069145Y0119456D03*
X0070445Y0119456D03*
X0070545Y0119756D03*
X0071045Y0122356D03*
X0066745Y0115856D03*
X0065445Y0115856D03*
D47*
X0063395Y0115256D03*
X0060995Y0114556D03*
X0057295Y0115356D03*
X0057195Y0115056D03*
X0057195Y0114856D03*
X0057095Y0114656D03*
X0056495Y0114656D03*
X0056495Y0114756D03*
X0056495Y0114856D03*
X0056395Y0115156D03*
X0055795Y0114856D03*
X0055795Y0114756D03*
X0055795Y0114656D03*
X0055095Y0114856D03*
X0055095Y0114956D03*
X0054995Y0115356D03*
X0053895Y0115256D03*
X0048195Y0113856D03*
X0042495Y0118356D03*
X0058995Y0120056D03*
X0071395Y0124656D03*
D48*
X0067695Y0124356D03*
X0065595Y0118556D03*
X0069795Y0118556D03*
X0047495Y0113956D03*
X0044495Y0124556D03*
D49*
X0049545Y0115756D03*
X0049545Y0115656D03*
X0051145Y0115656D03*
X0051145Y0115756D03*
X0053145Y0115856D03*
X0053145Y0113956D03*
X0047745Y0115056D03*
X0060245Y0113956D03*
X0062645Y0113956D03*
X0062645Y0115856D03*
D50*
X0063295Y0115556D03*
X0064495Y0115456D03*
X0065895Y0115456D03*
X0067095Y0115556D03*
X0063295Y0114256D03*
X0062095Y0114156D03*
X0061895Y0115356D03*
X0060795Y0115656D03*
X0060195Y0116056D03*
X0059595Y0115556D03*
X0059595Y0114256D03*
X0059695Y0114156D03*
X0058395Y0114156D03*
X0058395Y0114356D03*
X0058395Y0113956D03*
X0056795Y0113956D03*
X0055495Y0113956D03*
X0054895Y0115556D03*
X0054795Y0115956D03*
X0053795Y0115556D03*
X0052495Y0115556D03*
X0052395Y0115356D03*
X0051495Y0115856D03*
X0050795Y0115356D03*
X0050795Y0115256D03*
X0049895Y0115856D03*
X0049195Y0115356D03*
X0049195Y0115256D03*
X0048095Y0115256D03*
X0048095Y0115656D03*
X0046895Y0115656D03*
X0048095Y0114356D03*
X0052495Y0114256D03*
X0052595Y0114156D03*
X0053795Y0114256D03*
X0056195Y0115856D03*
X0057495Y0115956D03*
X0042495Y0118456D03*
X0071395Y0124556D03*
D51*
X0067745Y0124256D03*
X0065645Y0118656D03*
X0047445Y0114056D03*
D52*
X0053145Y0114056D03*
X0053145Y0115756D03*
X0060245Y0115756D03*
X0060245Y0114056D03*
X0062645Y0114056D03*
X0062645Y0115756D03*
X0065645Y0118456D03*
X0069845Y0118456D03*
D53*
X0065845Y0115556D03*
X0065445Y0115956D03*
X0064545Y0115556D03*
X0063145Y0114156D03*
X0062145Y0115656D03*
X0060745Y0114156D03*
X0059745Y0115656D03*
X0056845Y0114256D03*
X0056845Y0114156D03*
X0056845Y0114056D03*
X0055445Y0114056D03*
X0055445Y0114156D03*
X0055445Y0114256D03*
X0056145Y0115356D03*
X0056145Y0115456D03*
X0056145Y0115556D03*
X0056145Y0115656D03*
X0053645Y0114156D03*
X0052645Y0115656D03*
X0048045Y0114256D03*
X0046745Y0114156D03*
X0058945Y0120156D03*
X0062245Y0122856D03*
D54*
X0062195Y0123056D03*
X0062195Y0123556D03*
X0061995Y0123556D03*
X0061795Y0123556D03*
X0061595Y0123556D03*
X0061395Y0123556D03*
X0061195Y0123556D03*
X0060995Y0123556D03*
X0060795Y0123556D03*
X0060595Y0123556D03*
X0060395Y0123556D03*
X0060195Y0123556D03*
X0059995Y0123556D03*
X0059795Y0123556D03*
X0062395Y0123556D03*
X0062595Y0123556D03*
X0062795Y0123556D03*
X0062995Y0123556D03*
X0063195Y0123556D03*
X0063395Y0123556D03*
X0055595Y0123556D03*
X0055395Y0123556D03*
X0055195Y0123556D03*
X0054995Y0123556D03*
X0054795Y0123556D03*
X0054595Y0123556D03*
X0054395Y0123556D03*
X0049995Y0123556D03*
X0049795Y0123556D03*
X0049595Y0123556D03*
X0049395Y0123556D03*
X0049195Y0123556D03*
X0048995Y0123556D03*
X0044595Y0123556D03*
X0044395Y0123556D03*
X0047095Y0119456D03*
X0047295Y0119456D03*
X0047495Y0119456D03*
X0049995Y0115556D03*
X0050195Y0115556D03*
X0051595Y0115556D03*
X0051795Y0115556D03*
X0053095Y0114156D03*
X0058195Y0114456D03*
X0058395Y0114456D03*
X0058595Y0114456D03*
X0060195Y0114156D03*
X0060995Y0115256D03*
X0061195Y0115256D03*
X0060295Y0115656D03*
X0062595Y0114156D03*
X0065195Y0116056D03*
X0061395Y0119456D03*
X0061195Y0119456D03*
X0060695Y0119456D03*
X0060495Y0119456D03*
X0059995Y0119456D03*
X0059795Y0119456D03*
X0059295Y0119456D03*
X0059095Y0119456D03*
X0058895Y0119456D03*
X0058695Y0119456D03*
X0058495Y0119456D03*
X0058295Y0119456D03*
X0052795Y0119456D03*
X0046895Y0115056D03*
X0047395Y0114156D03*
D55*
X0047995Y0114156D03*
X0047995Y0115156D03*
X0047495Y0116056D03*
X0046895Y0114756D03*
X0049295Y0115456D03*
X0050895Y0115456D03*
X0053595Y0115656D03*
X0058995Y0120256D03*
X0062195Y0122756D03*
X0071395Y0124456D03*
X0066695Y0115956D03*
X0063095Y0115656D03*
X0042495Y0118556D03*
D56*
X0042445Y0118656D03*
X0042845Y0120356D03*
X0045945Y0120956D03*
X0048245Y0121056D03*
X0048245Y0121356D03*
X0048245Y0121556D03*
X0048245Y0121756D03*
X0048245Y0121956D03*
X0048245Y0122256D03*
X0048245Y0122456D03*
X0048245Y0122756D03*
X0048245Y0122956D03*
X0048245Y0123256D03*
X0050845Y0123256D03*
X0050845Y0123456D03*
X0050845Y0123056D03*
X0050845Y0122856D03*
X0050845Y0122656D03*
X0050845Y0122456D03*
X0050845Y0122256D03*
X0050845Y0122056D03*
X0050845Y0121856D03*
X0053645Y0121756D03*
X0053645Y0122156D03*
X0053645Y0122556D03*
X0053645Y0122956D03*
X0053645Y0123356D03*
X0053645Y0121356D03*
X0053645Y0120956D03*
X0053645Y0120556D03*
X0053645Y0120156D03*
X0053645Y0119756D03*
X0053645Y0119556D03*
X0050945Y0115556D03*
X0049345Y0115556D03*
X0048245Y0119656D03*
X0048245Y0119956D03*
X0048245Y0120156D03*
X0048245Y0120356D03*
X0048245Y0120556D03*
X0048245Y0120756D03*
X0055445Y0114556D03*
X0055445Y0114456D03*
X0055445Y0114356D03*
X0056145Y0115056D03*
X0056145Y0115256D03*
X0056845Y0114556D03*
X0056845Y0114456D03*
X0056845Y0114356D03*
X0062245Y0119656D03*
X0062245Y0119956D03*
X0062245Y0120256D03*
X0062245Y0120556D03*
X0062245Y0120856D03*
X0062245Y0121256D03*
X0062245Y0121556D03*
X0062245Y0121956D03*
X0062245Y0122256D03*
X0062245Y0122556D03*
X0064245Y0123156D03*
X0064345Y0122456D03*
X0064545Y0121456D03*
X0064645Y0120956D03*
X0064745Y0120456D03*
X0064845Y0119956D03*
X0066445Y0120156D03*
X0066645Y0121156D03*
X0066745Y0121656D03*
X0066845Y0122156D03*
X0066945Y0122656D03*
X0068445Y0123056D03*
X0068545Y0122556D03*
X0068845Y0120856D03*
X0068945Y0120356D03*
X0069045Y0119856D03*
X0070545Y0119856D03*
X0070545Y0119656D03*
X0070745Y0120756D03*
X0070845Y0121356D03*
X0070945Y0121756D03*
X0071045Y0122256D03*
X0071145Y0122756D03*
X0071445Y0124356D03*
X0058945Y0123056D03*
X0058945Y0122456D03*
X0058945Y0121456D03*
D57*
X0052945Y0118456D03*
X0047445Y0115756D03*
X0047545Y0114956D03*
X0067745Y0124456D03*
D58*
X0065545Y0116056D03*
X0056445Y0114956D03*
X0055845Y0114956D03*
X0055845Y0115156D03*
X0051645Y0116056D03*
X0050045Y0116056D03*
D59*
X0049545Y0124556D03*
X0054945Y0124556D03*
X0065745Y0115756D03*
X0065745Y0115656D03*
D60*
X0047495Y0115856D03*
D61*
X0047495Y0115956D03*
X0060295Y0115856D03*
X0067695Y0124556D03*
D62*
X0067745Y0124056D03*
X0067745Y0123856D03*
X0067745Y0123756D03*
X0065645Y0118856D03*
X0065645Y0118756D03*
X0069845Y0118856D03*
X0047345Y0118456D03*
X0044445Y0124456D03*
D63*
X0059995Y0118456D03*
D64*
X0052945Y0118956D03*
X0052845Y0119156D03*
X0047345Y0118556D03*
X0044445Y0123956D03*
X0044445Y0124056D03*
D65*
X0052995Y0118556D03*
X0067695Y0123956D03*
X0067695Y0124156D03*
X0069795Y0118756D03*
X0069795Y0118656D03*
D66*
X0059945Y0118556D03*
D67*
X0052895Y0119256D03*
X0052795Y0119356D03*
X0047295Y0118656D03*
X0044495Y0123656D03*
X0044495Y0123756D03*
X0044495Y0123856D03*
D68*
X0052995Y0118756D03*
X0052995Y0118656D03*
X0065595Y0118956D03*
X0065595Y0119056D03*
X0065595Y0119256D03*
X0069795Y0119156D03*
X0069795Y0119056D03*
X0069795Y0118956D03*
X0067695Y0123656D03*
D69*
X0059945Y0118656D03*
D70*
X0058995Y0120356D03*
X0058995Y0120456D03*
X0058995Y0120556D03*
X0058995Y0120656D03*
X0058995Y0120756D03*
X0058995Y0120856D03*
X0058995Y0120956D03*
X0058995Y0121056D03*
X0058995Y0121156D03*
X0058995Y0121256D03*
X0058995Y0121356D03*
X0058995Y0121556D03*
X0058995Y0121656D03*
X0058995Y0121756D03*
X0058995Y0121856D03*
X0058995Y0121956D03*
X0058995Y0122056D03*
X0058995Y0122156D03*
X0058995Y0122256D03*
X0058995Y0122356D03*
X0058995Y0122556D03*
X0058995Y0122656D03*
X0058995Y0122756D03*
X0058995Y0122856D03*
X0058995Y0122956D03*
X0058995Y0123156D03*
X0058995Y0123256D03*
X0058995Y0123356D03*
X0058995Y0123456D03*
X0056295Y0123456D03*
X0056295Y0123556D03*
X0056295Y0123356D03*
X0056295Y0123256D03*
X0056295Y0123156D03*
X0056295Y0123056D03*
X0056295Y0122956D03*
X0056295Y0122856D03*
X0056295Y0122756D03*
X0056295Y0122656D03*
X0056295Y0122556D03*
X0056295Y0122456D03*
X0056295Y0122356D03*
X0056295Y0122256D03*
X0056295Y0122156D03*
X0056295Y0122056D03*
X0056295Y0121956D03*
X0056295Y0121856D03*
X0056295Y0121756D03*
X0056295Y0121656D03*
X0053695Y0121656D03*
X0053595Y0121556D03*
X0053695Y0121456D03*
X0053695Y0121256D03*
X0053595Y0121156D03*
X0053695Y0121056D03*
X0053695Y0120856D03*
X0053595Y0120756D03*
X0053695Y0120656D03*
X0053695Y0120456D03*
X0053595Y0120356D03*
X0053695Y0120256D03*
X0053695Y0120056D03*
X0053595Y0119956D03*
X0053695Y0119856D03*
X0053695Y0119656D03*
X0053695Y0121856D03*
X0053595Y0121956D03*
X0053695Y0122056D03*
X0053695Y0122256D03*
X0053595Y0122356D03*
X0053695Y0122456D03*
X0053695Y0122656D03*
X0053595Y0122756D03*
X0053695Y0122856D03*
X0053695Y0123056D03*
X0053595Y0123156D03*
X0053695Y0123256D03*
X0053695Y0123456D03*
X0050895Y0123356D03*
X0050895Y0123156D03*
X0050895Y0122956D03*
X0050895Y0122756D03*
X0050895Y0122556D03*
X0050895Y0122356D03*
X0050895Y0122156D03*
X0050895Y0121956D03*
X0050895Y0121756D03*
X0050895Y0121656D03*
X0050895Y0121556D03*
X0048195Y0121456D03*
X0048195Y0121656D03*
X0048195Y0121856D03*
X0048195Y0122056D03*
X0048195Y0122156D03*
X0048195Y0122356D03*
X0048195Y0122556D03*
X0048195Y0122656D03*
X0048195Y0122856D03*
X0048195Y0123056D03*
X0048195Y0123156D03*
X0048195Y0123356D03*
X0048195Y0123456D03*
X0048295Y0123556D03*
X0045495Y0122956D03*
X0045495Y0122856D03*
X0045495Y0122756D03*
X0045495Y0122656D03*
X0045595Y0122556D03*
X0045595Y0122456D03*
X0045595Y0122356D03*
X0045595Y0122256D03*
X0045695Y0122156D03*
X0045695Y0122056D03*
X0045695Y0121956D03*
X0045695Y0121856D03*
X0045795Y0121756D03*
X0045795Y0121656D03*
X0045795Y0121556D03*
X0045795Y0121456D03*
X0045895Y0121356D03*
X0045895Y0121256D03*
X0045895Y0121156D03*
X0045995Y0120856D03*
X0045995Y0120756D03*
X0045995Y0120656D03*
X0046095Y0120456D03*
X0046095Y0120356D03*
X0046095Y0120256D03*
X0046095Y0120156D03*
X0046195Y0120056D03*
X0046195Y0119956D03*
X0046195Y0119856D03*
X0046195Y0119756D03*
X0046295Y0119656D03*
X0046295Y0119556D03*
X0048195Y0119556D03*
X0048195Y0119456D03*
X0048195Y0119756D03*
X0048195Y0119856D03*
X0048195Y0120056D03*
X0048195Y0120256D03*
X0048195Y0120456D03*
X0048195Y0120656D03*
X0048195Y0120856D03*
X0048195Y0120956D03*
X0048195Y0121156D03*
X0048195Y0121256D03*
X0045395Y0123056D03*
X0045395Y0123156D03*
X0045395Y0123256D03*
X0045395Y0123356D03*
X0045295Y0123456D03*
X0045295Y0123556D03*
X0043595Y0123456D03*
X0043595Y0123356D03*
X0043495Y0123156D03*
X0043495Y0123056D03*
X0043495Y0122956D03*
X0043495Y0122856D03*
X0043395Y0122756D03*
X0043395Y0122656D03*
X0043395Y0122556D03*
X0043395Y0122456D03*
X0043295Y0122356D03*
X0043295Y0122256D03*
X0043295Y0122156D03*
X0043295Y0122056D03*
X0043195Y0121956D03*
X0043195Y0121856D03*
X0043195Y0121756D03*
X0043195Y0121656D03*
X0043095Y0121556D03*
X0043095Y0121456D03*
X0043095Y0121356D03*
X0043095Y0121256D03*
X0042995Y0121156D03*
X0042995Y0121056D03*
X0042995Y0120956D03*
X0042995Y0120856D03*
X0042895Y0120756D03*
X0042895Y0120656D03*
X0042895Y0120556D03*
X0042895Y0120456D03*
X0042795Y0120256D03*
X0042795Y0120156D03*
X0042795Y0120056D03*
X0042795Y0119956D03*
X0042695Y0119856D03*
X0042695Y0119756D03*
X0042695Y0119656D03*
X0042695Y0119556D03*
X0042595Y0119456D03*
X0042595Y0119356D03*
X0042595Y0119256D03*
X0042595Y0119156D03*
X0042495Y0119056D03*
X0042495Y0118956D03*
X0042495Y0118856D03*
X0042495Y0118756D03*
X0062195Y0119556D03*
X0062195Y0119756D03*
X0062195Y0119856D03*
X0062195Y0120056D03*
X0062195Y0120156D03*
X0062195Y0120356D03*
X0062195Y0120456D03*
X0062195Y0120656D03*
X0062195Y0120756D03*
X0062195Y0120956D03*
X0062195Y0121056D03*
X0062195Y0121156D03*
X0062195Y0121356D03*
X0062195Y0121456D03*
X0062195Y0121656D03*
X0062195Y0121756D03*
X0062195Y0121856D03*
X0062195Y0122056D03*
X0062195Y0122156D03*
X0062195Y0122356D03*
X0062195Y0122456D03*
X0062195Y0122656D03*
X0064195Y0123056D03*
X0064295Y0122956D03*
X0064295Y0122856D03*
X0064295Y0122756D03*
X0064295Y0122656D03*
X0064395Y0122356D03*
X0064395Y0122256D03*
X0064395Y0122156D03*
X0064395Y0122056D03*
X0064495Y0121956D03*
X0064495Y0121856D03*
X0064495Y0121756D03*
X0064495Y0121656D03*
X0064495Y0121556D03*
X0064595Y0121356D03*
X0064595Y0121256D03*
X0064595Y0121156D03*
X0064695Y0120856D03*
X0064695Y0120756D03*
X0064695Y0120656D03*
X0064695Y0120556D03*
X0064795Y0120356D03*
X0064795Y0120256D03*
X0064795Y0120156D03*
X0064895Y0119856D03*
X0064895Y0119756D03*
X0064895Y0119656D03*
X0064895Y0119556D03*
X0066295Y0119556D03*
X0066295Y0119456D03*
X0066395Y0119656D03*
X0066395Y0119756D03*
X0066395Y0119856D03*
X0066395Y0119956D03*
X0066395Y0120056D03*
X0066495Y0120256D03*
X0066495Y0120356D03*
X0066495Y0120456D03*
X0066495Y0120556D03*
X0066595Y0120656D03*
X0066495Y0120756D03*
X0066595Y0120856D03*
X0066595Y0120956D03*
X0066595Y0121056D03*
X0066695Y0121256D03*
X0066695Y0121356D03*
X0066695Y0121456D03*
X0066695Y0121556D03*
X0066795Y0121856D03*
X0066795Y0121956D03*
X0066795Y0122056D03*
X0066895Y0122356D03*
X0066895Y0122456D03*
X0066895Y0122556D03*
X0066995Y0122856D03*
X0066995Y0122956D03*
X0066995Y0123056D03*
X0066995Y0123156D03*
X0067095Y0123256D03*
X0067095Y0123356D03*
X0067095Y0123456D03*
X0067095Y0123556D03*
X0068295Y0123556D03*
X0068295Y0123456D03*
X0068395Y0123356D03*
X0068395Y0123256D03*
X0068395Y0123156D03*
X0068395Y0122956D03*
X0068495Y0122856D03*
X0068495Y0122756D03*
X0068495Y0122656D03*
X0068495Y0122456D03*
X0068595Y0122356D03*
X0068595Y0122256D03*
X0068595Y0122156D03*
X0068595Y0122056D03*
X0068595Y0121956D03*
X0068695Y0121856D03*
X0068695Y0121756D03*
X0068695Y0121656D03*
X0068695Y0121556D03*
X0068695Y0121456D03*
X0068795Y0121356D03*
X0068795Y0121256D03*
X0068795Y0121156D03*
X0068795Y0121056D03*
X0068895Y0120756D03*
X0068895Y0120656D03*
X0068895Y0120556D03*
X0068995Y0120256D03*
X0068995Y0120156D03*
X0068995Y0120056D03*
X0068995Y0119956D03*
X0069095Y0119756D03*
X0069095Y0119656D03*
X0069095Y0119556D03*
X0070495Y0119556D03*
X0070595Y0119956D03*
X0070595Y0120056D03*
X0070595Y0120156D03*
X0070695Y0120256D03*
X0070695Y0120356D03*
X0070695Y0120456D03*
X0070695Y0120556D03*
X0070695Y0120656D03*
X0070795Y0120856D03*
X0070795Y0120956D03*
X0070795Y0121056D03*
X0070795Y0121156D03*
X0070895Y0121256D03*
X0070895Y0121456D03*
X0070895Y0121556D03*
X0070895Y0121656D03*
X0070995Y0121856D03*
X0070995Y0121956D03*
X0070995Y0122056D03*
X0070995Y0122156D03*
X0071095Y0122456D03*
X0071095Y0122556D03*
X0071095Y0122656D03*
X0071195Y0122856D03*
X0071195Y0122956D03*
X0071195Y0123056D03*
X0071195Y0123156D03*
X0071195Y0123256D03*
X0071295Y0123356D03*
X0071295Y0123456D03*
X0071295Y0123556D03*
X0071295Y0123656D03*
X0071295Y0123756D03*
X0071395Y0123856D03*
X0071395Y0123956D03*
X0071395Y0124056D03*
X0071395Y0124156D03*
X0071395Y0124256D03*
X0064195Y0123456D03*
X0064195Y0123356D03*
X0064195Y0123256D03*
X0064095Y0123556D03*
D71*
X0047345Y0118856D03*
X0047345Y0118756D03*
D72*
X0059995Y0118756D03*
X0061495Y0124556D03*
D73*
X0065645Y0119356D03*
X0065645Y0119156D03*
X0069845Y0119256D03*
X0069845Y0119356D03*
X0052945Y0118856D03*
X0044445Y0124256D03*
X0044445Y0124356D03*
D74*
X0059945Y0118956D03*
X0059945Y0118856D03*
D75*
X0047295Y0118956D03*
X0047295Y0119056D03*
X0047295Y0119156D03*
X0047295Y0119256D03*
D76*
X0052895Y0119056D03*
X0044495Y0124156D03*
D77*
X0059895Y0119156D03*
X0059895Y0119056D03*
D78*
X0059845Y0119256D03*
X0059845Y0119356D03*
X0061545Y0124456D03*
D79*
X0047245Y0119356D03*
D80*
X0051195Y0120956D03*
X0051295Y0120756D03*
X0051695Y0120056D03*
X0051795Y0119856D03*
X0051895Y0119656D03*
X0053595Y0119456D03*
X0056595Y0121056D03*
X0056795Y0120656D03*
X0056895Y0120456D03*
X0057395Y0119556D03*
X0057495Y0119456D03*
X0050795Y0123556D03*
D81*
X0059545Y0119456D03*
X0060245Y0119456D03*
X0060945Y0119456D03*
D82*
X0054995Y0123656D03*
X0054995Y0123756D03*
X0054995Y0123856D03*
X0054995Y0124056D03*
X0054995Y0124156D03*
X0049595Y0123756D03*
X0049495Y0123856D03*
X0049495Y0123656D03*
D83*
X0061545Y0123656D03*
X0061545Y0123756D03*
X0061545Y0123856D03*
X0061545Y0123956D03*
D84*
X0054945Y0123956D03*
X0049545Y0123956D03*
X0049545Y0124156D03*
D85*
X0049545Y0124256D03*
X0049545Y0124356D03*
X0049545Y0124056D03*
X0054945Y0124256D03*
X0054945Y0124356D03*
D86*
X0061495Y0124156D03*
X0061495Y0124056D03*
D87*
X0061545Y0124256D03*
X0061545Y0124356D03*
D88*
X0054945Y0124456D03*
X0049545Y0124456D03*
D89*
X0069656Y0110458D02*
X0070423Y0111225D01*
X0071958Y0111225D01*
X0072725Y0110458D01*
X0072725Y0108923D01*
X0071958Y0108156D01*
X0070423Y0108156D01*
X0069656Y0109691D02*
X0072725Y0109691D01*
X0074260Y0111225D02*
X0076562Y0111225D01*
X0077329Y0110458D01*
X0077329Y0108923D01*
X0076562Y0108156D01*
X0074260Y0108156D01*
X0074260Y0112760D01*
X0069656Y0110458D02*
X0069656Y0109691D01*
X0065819Y0105260D02*
X0067354Y0103725D01*
X0067354Y0102191D01*
X0065819Y0100656D01*
X0068889Y0102958D02*
X0071958Y0102958D01*
X0073493Y0102958D02*
X0073493Y0103725D01*
X0074260Y0103725D01*
X0074260Y0102958D01*
X0073493Y0102958D01*
X0073493Y0101423D02*
X0073493Y0100656D01*
X0074260Y0100656D01*
X0074260Y0101423D01*
X0073493Y0101423D01*
X0085002Y0100656D02*
X0085002Y0102958D01*
X0085770Y0103725D01*
X0088072Y0103725D01*
X0088072Y0100656D01*
X0089606Y0101423D02*
X0089606Y0103725D01*
X0092676Y0103725D02*
X0092676Y0101423D01*
X0091908Y0100656D01*
X0091141Y0101423D01*
X0090374Y0100656D01*
X0089606Y0101423D01*
X0094210Y0101423D02*
X0094210Y0102958D01*
X0094977Y0103725D01*
X0096512Y0103725D01*
X0097279Y0102958D01*
X0097279Y0101423D01*
X0096512Y0100656D01*
X0094977Y0100656D01*
X0094210Y0101423D01*
X0098814Y0100656D02*
X0101116Y0100656D01*
X0101883Y0101423D01*
X0101883Y0102958D01*
X0101116Y0103725D01*
X0098814Y0103725D01*
X0098814Y0105260D02*
X0098814Y0100656D01*
X0089606Y0106621D02*
X0089606Y0111225D01*
X0087304Y0111225D01*
X0086537Y0110458D01*
X0086537Y0108923D01*
X0087304Y0108156D01*
X0089606Y0108156D01*
X0091141Y0108156D02*
X0091141Y0111225D01*
X0094210Y0111225D02*
X0094210Y0108923D01*
X0093443Y0108156D01*
X0091141Y0108156D01*
X0085002Y0108156D02*
X0082700Y0108156D01*
X0081933Y0108923D01*
X0082700Y0109691D01*
X0084235Y0109691D01*
X0085002Y0110458D01*
X0084235Y0111225D01*
X0081933Y0111225D01*
X0080398Y0111225D02*
X0079631Y0111225D01*
X0079631Y0108156D01*
X0080398Y0108156D02*
X0078864Y0108156D01*
X0079631Y0112760D02*
X0079631Y0113527D01*
X0100349Y0110458D02*
X0100349Y0108156D01*
X0101883Y0108156D02*
X0101883Y0110458D01*
X0101116Y0111225D01*
X0100349Y0110458D01*
X0101883Y0110458D02*
X0102651Y0111225D01*
X0103418Y0111225D01*
X0103418Y0108156D01*
X0104953Y0108156D02*
X0107255Y0108156D01*
X0108022Y0108923D01*
X0107255Y0109691D01*
X0104953Y0109691D01*
X0104953Y0110458D02*
X0104953Y0108156D01*
X0104953Y0110458D02*
X0105720Y0111225D01*
X0107255Y0111225D01*
X0114161Y0112760D02*
X0115695Y0112760D01*
X0114928Y0112760D02*
X0114928Y0108156D01*
X0115695Y0108156D02*
X0114161Y0108156D01*
D90*
X0036595Y0126256D02*
X0036595Y0011256D01*
X0046595Y0001256D01*
X0236595Y0001256D01*
X0246595Y0011256D01*
X0246595Y0126256D01*
X0241595Y0131256D01*
X0041595Y0131256D01*
X0036595Y0126256D01*
M02*
