G75*
%MOIN*%
%OFA0B0*%
%FSLAX25Y25*%
%IPPOS*%
%LPD*%
%AMOC8*
5,1,8,0,0,1.08239X$1,22.5*
%
%ADD10C,0.08200*%
%ADD11C,0.00500*%
%ADD12C,0.08300*%
%ADD13C,0.06300*%
%ADD14C,0.04762*%
D10*
X0046595Y0016256D03*
X0046595Y0026256D03*
X0046595Y0036256D03*
X0046595Y0046256D03*
X0046595Y0056256D03*
X0046595Y0066256D03*
X0046595Y0076256D03*
X0046595Y0086256D03*
X0046595Y0096256D03*
X0046595Y0106256D03*
X0236595Y0101256D03*
X0236595Y0091256D03*
X0236595Y0081256D03*
X0236595Y0071256D03*
X0236595Y0061256D03*
X0236595Y0051256D03*
X0236595Y0111256D03*
X0236595Y0121256D03*
D11*
X0036595Y0126256D02*
X0036595Y0011256D01*
X0046595Y0001256D01*
X0236595Y0001256D01*
X0246595Y0011256D01*
X0246595Y0126256D01*
X0241595Y0131256D01*
X0041595Y0131256D01*
X0036595Y0126256D01*
D12*
X0079195Y0085656D03*
X0079195Y0075656D03*
X0079195Y0065656D03*
X0079195Y0055656D03*
X0109195Y0055656D03*
X0109195Y0065656D03*
X0109195Y0075656D03*
X0109195Y0085656D03*
X0165495Y0081556D03*
X0165495Y0091556D03*
X0165495Y0101556D03*
X0195495Y0101556D03*
X0195495Y0091556D03*
X0195495Y0081556D03*
X0195495Y0071556D03*
X0195495Y0061556D03*
X0195495Y0051556D03*
X0195495Y0041556D03*
X0165495Y0041556D03*
X0165495Y0051556D03*
X0165495Y0061556D03*
X0165495Y0071556D03*
D13*
X0141795Y0067956D03*
X0128795Y0067956D03*
X0128795Y0077756D03*
X0141795Y0077756D03*
X0141795Y0058156D03*
X0128795Y0058156D03*
D14*
X0103595Y0061256D03*
X0099595Y0056256D03*
X0089595Y0064256D03*
X0085595Y0053256D03*
X0053595Y0049256D03*
X0066942Y0098909D03*
X0154595Y0097256D03*
X0154595Y0061256D03*
X0210595Y0032256D03*
X0230595Y0034256D03*
M02*
