%
M48
M72
T01C0.02362
T02C0.03500
T03C0.04000
T04C0.05000
%
T01
X66942Y98909
X89595Y64256
X99595Y56256
X103595Y61256
X85595Y53256
X53595Y49256
X154595Y97256
X154595Y61256
X210595Y32256
X230595Y34256
T02
X128795Y77756
X141795Y77756
X141795Y67956
X128795Y67956
X128795Y58156
X141795Y58156
T03
X46595Y106256
X46595Y96256
X46595Y86256
X46595Y76256
X46595Y66256
X46595Y56256
X46595Y46256
X46595Y36256
X46595Y26256
X46595Y16256
X236595Y121256
X236595Y111256
X236595Y101256
X236595Y91256
X236595Y81256
X236595Y71256
X236595Y61256
X236595Y51256
T04
X79195Y85656
X79195Y75656
X79195Y65656
X79195Y55656
X109195Y55656
X109195Y65656
X109195Y75656
X109195Y85656
X165495Y81556
X165495Y91556
X165495Y101556
X195495Y101556
X195495Y91556
X195495Y81556
X195495Y71556
X195495Y61556
X195495Y51556
X195495Y41556
X165495Y41556
X165495Y51556
X165495Y61556
X165495Y71556
M30
