G75*
%MOIN*%
%OFA0B0*%
%FSLAX25Y25*%
%IPPOS*%
%LPD*%
%AMOC8*
5,1,8,0,0,1.08239X$1,22.5*
%
%ADD10C,0.07400*%
%ADD11C,0.00500*%
%ADD12C,0.07500*%
%ADD13C,0.05500*%
%ADD14C,0.01600*%
%ADD15C,0.03962*%
D10*
X0046595Y0016256D03*
X0046595Y0026256D03*
X0046595Y0036256D03*
X0046595Y0046256D03*
X0046595Y0056256D03*
X0046595Y0066256D03*
X0046595Y0076256D03*
X0046595Y0086256D03*
X0046595Y0096256D03*
X0046595Y0106256D03*
X0236595Y0101256D03*
X0236595Y0091256D03*
X0236595Y0081256D03*
X0236595Y0071256D03*
X0236595Y0061256D03*
X0236595Y0051256D03*
X0236595Y0111256D03*
X0236595Y0121256D03*
D11*
X0036595Y0126256D02*
X0036595Y0011256D01*
X0046595Y0001256D01*
X0236595Y0001256D01*
X0246595Y0011256D01*
X0246595Y0126256D01*
X0241595Y0131256D01*
X0041595Y0131256D01*
X0036595Y0126256D01*
D12*
X0079195Y0085656D03*
X0079195Y0075656D03*
X0079195Y0065656D03*
X0079195Y0055656D03*
X0109195Y0055656D03*
X0109195Y0065656D03*
X0109195Y0075656D03*
X0109195Y0085656D03*
X0165495Y0081556D03*
X0165495Y0091556D03*
X0165495Y0101556D03*
X0195495Y0101556D03*
X0195495Y0091556D03*
X0195495Y0081556D03*
X0195495Y0071556D03*
X0195495Y0061556D03*
X0195495Y0051556D03*
X0195495Y0041556D03*
X0165495Y0041556D03*
X0165495Y0051556D03*
X0165495Y0061556D03*
X0165495Y0071556D03*
D13*
X0141795Y0067956D03*
X0128795Y0067956D03*
X0128795Y0077756D03*
X0141795Y0077756D03*
X0141795Y0058156D03*
X0128795Y0058156D03*
D14*
X0124898Y0056720D02*
X0114329Y0056720D01*
X0114345Y0056680D02*
X0113561Y0058573D01*
X0112112Y0060022D01*
X0110582Y0060656D01*
X0112112Y0061290D01*
X0113561Y0062739D01*
X0114345Y0064631D01*
X0114345Y0066680D01*
X0113561Y0068573D01*
X0112112Y0070022D01*
X0110582Y0070656D01*
X0112112Y0071290D01*
X0113561Y0072739D01*
X0114345Y0074631D01*
X0114345Y0076680D01*
X0113561Y0078573D01*
X0112112Y0080022D01*
X0110582Y0080656D01*
X0112112Y0081290D01*
X0113561Y0082739D01*
X0114345Y0084631D01*
X0114345Y0086680D01*
X0113561Y0088573D01*
X0112112Y0090022D01*
X0110220Y0090806D01*
X0108171Y0090806D01*
X0106278Y0090022D01*
X0104829Y0088573D01*
X0104045Y0086680D01*
X0104045Y0084631D01*
X0104829Y0082739D01*
X0106278Y0081290D01*
X0107809Y0080656D01*
X0106278Y0080022D01*
X0104829Y0078573D01*
X0104045Y0076680D01*
X0104045Y0074631D01*
X0104829Y0072739D01*
X0106278Y0071290D01*
X0107809Y0070656D01*
X0106278Y0070022D01*
X0104829Y0068573D01*
X0104045Y0066680D01*
X0104045Y0064637D01*
X0102923Y0064637D01*
X0101680Y0064122D01*
X0101260Y0063702D01*
X0099795Y0065167D01*
X0098506Y0066456D01*
X0092177Y0066456D01*
X0091510Y0067122D01*
X0090268Y0067637D01*
X0088923Y0067637D01*
X0087795Y0067170D01*
X0087795Y0076167D01*
X0086795Y0077167D01*
X0085506Y0078456D01*
X0083610Y0078456D01*
X0083561Y0078573D01*
X0082112Y0080022D01*
X0080582Y0080656D01*
X0082112Y0081290D01*
X0083561Y0082739D01*
X0084345Y0084631D01*
X0084345Y0086680D01*
X0083561Y0088573D01*
X0082112Y0090022D01*
X0080220Y0090806D01*
X0078171Y0090806D01*
X0076278Y0090022D01*
X0074829Y0088573D01*
X0074045Y0086680D01*
X0074045Y0084631D01*
X0074829Y0082739D01*
X0076278Y0081290D01*
X0077809Y0080656D01*
X0076278Y0080022D01*
X0074829Y0078573D01*
X0074045Y0076680D01*
X0074045Y0074631D01*
X0074829Y0072739D01*
X0076278Y0071290D01*
X0077809Y0070656D01*
X0076278Y0070022D01*
X0074829Y0068573D01*
X0074045Y0066680D01*
X0074045Y0064631D01*
X0074829Y0062739D01*
X0076278Y0061290D01*
X0078171Y0060506D01*
X0080220Y0060506D01*
X0082112Y0061290D01*
X0083395Y0062573D01*
X0083395Y0055837D01*
X0082729Y0055171D01*
X0082214Y0053928D01*
X0082214Y0052583D01*
X0082681Y0051456D01*
X0056177Y0051456D01*
X0055510Y0052122D01*
X0054268Y0052637D01*
X0052923Y0052637D01*
X0051680Y0052122D01*
X0050729Y0051171D01*
X0050214Y0049928D01*
X0050214Y0048583D01*
X0050729Y0047341D01*
X0051680Y0046390D01*
X0052923Y0045875D01*
X0054268Y0045875D01*
X0055510Y0046390D01*
X0056177Y0047056D01*
X0093506Y0047056D01*
X0094795Y0048345D01*
X0099325Y0052875D01*
X0100268Y0052875D01*
X0101510Y0053390D01*
X0102461Y0054341D01*
X0102976Y0055583D01*
X0102976Y0056928D01*
X0102514Y0058044D01*
X0102923Y0057875D01*
X0104268Y0057875D01*
X0104596Y0058011D01*
X0104045Y0056680D01*
X0104045Y0054631D01*
X0104829Y0052739D01*
X0106278Y0051290D01*
X0108171Y0050506D01*
X0110220Y0050506D01*
X0112112Y0051290D01*
X0113561Y0052739D01*
X0114345Y0054631D01*
X0114345Y0056680D01*
X0114345Y0055122D02*
X0125960Y0055122D01*
X0126444Y0054638D02*
X0127970Y0054006D01*
X0129621Y0054006D01*
X0131146Y0054638D01*
X0132313Y0055805D01*
X0132945Y0057330D01*
X0132945Y0058981D01*
X0132313Y0060507D01*
X0131146Y0061674D01*
X0129621Y0062306D01*
X0127970Y0062306D01*
X0126444Y0061674D01*
X0125277Y0060507D01*
X0124645Y0058981D01*
X0124645Y0057330D01*
X0125277Y0055805D01*
X0126444Y0054638D01*
X0124645Y0058319D02*
X0113666Y0058319D01*
X0112217Y0059917D02*
X0125033Y0059917D01*
X0126286Y0061516D02*
X0112338Y0061516D01*
X0113717Y0063114D02*
X0151705Y0063114D01*
X0151729Y0063171D02*
X0151214Y0061928D01*
X0151214Y0060583D01*
X0151729Y0059341D01*
X0152680Y0058390D01*
X0153923Y0057875D01*
X0155268Y0057875D01*
X0156510Y0058390D01*
X0157461Y0059341D01*
X0157976Y0060583D01*
X0157976Y0061928D01*
X0157461Y0063171D01*
X0156795Y0063837D01*
X0156795Y0094674D01*
X0157461Y0095341D01*
X0157976Y0096583D01*
X0157976Y0097928D01*
X0157461Y0099171D01*
X0156510Y0100122D01*
X0155268Y0100637D01*
X0153923Y0100637D01*
X0152680Y0100122D01*
X0151729Y0099171D01*
X0151214Y0097928D01*
X0151214Y0096583D01*
X0151729Y0095341D01*
X0152395Y0094674D01*
X0152395Y0063837D01*
X0151729Y0063171D01*
X0152395Y0064713D02*
X0144421Y0064713D01*
X0144146Y0064438D02*
X0145313Y0065605D01*
X0145945Y0067130D01*
X0145945Y0068781D01*
X0145313Y0070307D01*
X0144146Y0071474D01*
X0142621Y0072106D01*
X0140970Y0072106D01*
X0139444Y0071474D01*
X0138277Y0070307D01*
X0137645Y0068781D01*
X0137645Y0067130D01*
X0138277Y0065605D01*
X0139444Y0064438D01*
X0140970Y0063806D01*
X0142621Y0063806D01*
X0144146Y0064438D01*
X0142621Y0062306D02*
X0140970Y0062306D01*
X0139444Y0061674D01*
X0138277Y0060507D01*
X0137645Y0058981D01*
X0137645Y0057330D01*
X0138277Y0055805D01*
X0139444Y0054638D01*
X0140970Y0054006D01*
X0142621Y0054006D01*
X0144146Y0054638D01*
X0145313Y0055805D01*
X0145945Y0057330D01*
X0145945Y0058981D01*
X0145313Y0060507D01*
X0144146Y0061674D01*
X0142621Y0062306D01*
X0144304Y0061516D02*
X0151214Y0061516D01*
X0151490Y0059917D02*
X0145557Y0059917D01*
X0145945Y0058319D02*
X0152850Y0058319D01*
X0156340Y0058319D02*
X0161449Y0058319D01*
X0161129Y0058639D02*
X0162578Y0057190D01*
X0164109Y0056556D01*
X0162578Y0055922D01*
X0161129Y0054473D01*
X0160345Y0052580D01*
X0160345Y0050531D01*
X0161129Y0048639D01*
X0162578Y0047190D01*
X0164109Y0046556D01*
X0162578Y0045922D01*
X0161129Y0044473D01*
X0160345Y0042580D01*
X0160345Y0040531D01*
X0161129Y0038639D01*
X0162578Y0037190D01*
X0164471Y0036406D01*
X0166520Y0036406D01*
X0168412Y0037190D01*
X0169861Y0038639D01*
X0170645Y0040531D01*
X0170645Y0042580D01*
X0169861Y0044473D01*
X0168412Y0045922D01*
X0166882Y0046556D01*
X0168412Y0047190D01*
X0169861Y0048639D01*
X0170645Y0050531D01*
X0170645Y0052580D01*
X0169861Y0054473D01*
X0168412Y0055922D01*
X0166882Y0056556D01*
X0168412Y0057190D01*
X0169861Y0058639D01*
X0170645Y0060531D01*
X0170645Y0062580D01*
X0169861Y0064473D01*
X0168412Y0065922D01*
X0166882Y0066556D01*
X0168412Y0067190D01*
X0169861Y0068639D01*
X0170645Y0070531D01*
X0170645Y0072580D01*
X0169861Y0074473D01*
X0168412Y0075922D01*
X0166882Y0076556D01*
X0168412Y0077190D01*
X0169861Y0078639D01*
X0170645Y0080531D01*
X0170645Y0082580D01*
X0169861Y0084473D01*
X0168412Y0085922D01*
X0166882Y0086556D01*
X0168412Y0087190D01*
X0169861Y0088639D01*
X0170645Y0090531D01*
X0170645Y0092580D01*
X0169861Y0094473D01*
X0168412Y0095922D01*
X0166882Y0096556D01*
X0168412Y0097190D01*
X0169861Y0098639D01*
X0170645Y0100531D01*
X0170645Y0102580D01*
X0169861Y0104473D01*
X0168412Y0105922D01*
X0166520Y0106706D01*
X0164471Y0106706D01*
X0162578Y0105922D01*
X0161129Y0104473D01*
X0160345Y0102580D01*
X0160345Y0100531D01*
X0161129Y0098639D01*
X0162578Y0097190D01*
X0164109Y0096556D01*
X0162578Y0095922D01*
X0161129Y0094473D01*
X0160345Y0092580D01*
X0160345Y0090531D01*
X0161129Y0088639D01*
X0162578Y0087190D01*
X0164109Y0086556D01*
X0162578Y0085922D01*
X0161129Y0084473D01*
X0160345Y0082580D01*
X0160345Y0080531D01*
X0161129Y0078639D01*
X0162578Y0077190D01*
X0164109Y0076556D01*
X0162578Y0075922D01*
X0161129Y0074473D01*
X0160345Y0072580D01*
X0160345Y0070531D01*
X0161129Y0068639D01*
X0162578Y0067190D01*
X0164109Y0066556D01*
X0162578Y0065922D01*
X0161129Y0064473D01*
X0160345Y0062580D01*
X0160345Y0060531D01*
X0161129Y0058639D01*
X0160599Y0059917D02*
X0157700Y0059917D01*
X0157976Y0061516D02*
X0160345Y0061516D01*
X0160566Y0063114D02*
X0157485Y0063114D01*
X0156795Y0064713D02*
X0161369Y0064713D01*
X0163519Y0066312D02*
X0156795Y0066312D01*
X0156795Y0067910D02*
X0161858Y0067910D01*
X0160769Y0069509D02*
X0156795Y0069509D01*
X0156795Y0071107D02*
X0160345Y0071107D01*
X0160397Y0072706D02*
X0156795Y0072706D01*
X0156795Y0074304D02*
X0161059Y0074304D01*
X0162559Y0075903D02*
X0156795Y0075903D01*
X0156795Y0077501D02*
X0162267Y0077501D01*
X0160938Y0079100D02*
X0156795Y0079100D01*
X0156795Y0080698D02*
X0160345Y0080698D01*
X0160345Y0082297D02*
X0156795Y0082297D01*
X0156795Y0083895D02*
X0160890Y0083895D01*
X0162150Y0085494D02*
X0156795Y0085494D01*
X0156795Y0087092D02*
X0162814Y0087092D01*
X0161108Y0088691D02*
X0156795Y0088691D01*
X0156795Y0090289D02*
X0160446Y0090289D01*
X0160345Y0091888D02*
X0156795Y0091888D01*
X0156795Y0093486D02*
X0160720Y0093486D01*
X0161741Y0095085D02*
X0157206Y0095085D01*
X0157976Y0096683D02*
X0163801Y0096683D01*
X0161486Y0098282D02*
X0157830Y0098282D01*
X0156752Y0099880D02*
X0160615Y0099880D01*
X0160345Y0101479D02*
X0048389Y0101479D01*
X0047851Y0101256D02*
X0049484Y0101932D01*
X0050919Y0103367D01*
X0051695Y0105241D01*
X0051695Y0107270D01*
X0050919Y0109145D01*
X0049484Y0110579D01*
X0047610Y0111356D01*
X0045581Y0111356D01*
X0043706Y0110579D01*
X0042272Y0109145D01*
X0041645Y0107632D01*
X0041645Y0124164D01*
X0043687Y0126206D01*
X0235219Y0126206D01*
X0233706Y0125579D01*
X0232272Y0124145D01*
X0231495Y0122270D01*
X0231495Y0120241D01*
X0232272Y0118367D01*
X0233706Y0116932D01*
X0235581Y0116156D01*
X0237610Y0116156D01*
X0239484Y0116932D01*
X0240919Y0118367D01*
X0241545Y0119879D01*
X0241545Y0092632D01*
X0240919Y0094145D01*
X0239484Y0095579D01*
X0237610Y0096356D01*
X0235581Y0096356D01*
X0233706Y0095579D01*
X0232272Y0094145D01*
X0231495Y0092270D01*
X0231495Y0090241D01*
X0232272Y0088367D01*
X0233706Y0086932D01*
X0235339Y0086256D01*
X0233706Y0085579D01*
X0232272Y0084145D01*
X0231495Y0082270D01*
X0231495Y0080241D01*
X0232272Y0078367D01*
X0233706Y0076932D01*
X0235339Y0076256D01*
X0233706Y0075579D01*
X0232272Y0074145D01*
X0231495Y0072270D01*
X0231495Y0070241D01*
X0232272Y0068367D01*
X0233706Y0066932D01*
X0235339Y0066256D01*
X0233706Y0065579D01*
X0232272Y0064145D01*
X0231495Y0062270D01*
X0231495Y0060241D01*
X0232272Y0058367D01*
X0233706Y0056932D01*
X0235339Y0056256D01*
X0233706Y0055579D01*
X0232272Y0054145D01*
X0231495Y0052270D01*
X0231495Y0050241D01*
X0232272Y0048367D01*
X0233706Y0046932D01*
X0235581Y0046156D01*
X0237610Y0046156D01*
X0239484Y0046932D01*
X0240919Y0048367D01*
X0241545Y0049879D01*
X0241545Y0013348D01*
X0234503Y0006306D01*
X0048687Y0006306D01*
X0041645Y0013348D01*
X0041645Y0014879D01*
X0042272Y0013367D01*
X0043706Y0011932D01*
X0045581Y0011156D01*
X0047610Y0011156D01*
X0049484Y0011932D01*
X0050919Y0013367D01*
X0051695Y0015241D01*
X0051695Y0017270D01*
X0050919Y0019145D01*
X0049484Y0020579D01*
X0047851Y0021256D01*
X0049484Y0021932D01*
X0050919Y0023367D01*
X0051695Y0025241D01*
X0051695Y0027270D01*
X0050919Y0029145D01*
X0049484Y0030579D01*
X0047851Y0031256D01*
X0049484Y0031932D01*
X0050919Y0033367D01*
X0051695Y0035241D01*
X0051695Y0037270D01*
X0050919Y0039145D01*
X0049484Y0040579D01*
X0047610Y0041356D01*
X0045581Y0041356D01*
X0043706Y0040579D01*
X0042272Y0039145D01*
X0041645Y0037632D01*
X0041645Y0054879D01*
X0042272Y0053367D01*
X0043706Y0051932D01*
X0045581Y0051156D01*
X0047610Y0051156D01*
X0049484Y0051932D01*
X0050919Y0053367D01*
X0051695Y0055241D01*
X0051695Y0057270D01*
X0050919Y0059145D01*
X0049484Y0060579D01*
X0047851Y0061256D01*
X0049484Y0061932D01*
X0050919Y0063367D01*
X0051695Y0065241D01*
X0051695Y0067270D01*
X0050919Y0069145D01*
X0049484Y0070579D01*
X0047851Y0071256D01*
X0049484Y0071932D01*
X0050919Y0073367D01*
X0051695Y0075241D01*
X0051695Y0077270D01*
X0050919Y0079145D01*
X0049484Y0080579D01*
X0047851Y0081256D01*
X0049484Y0081932D01*
X0050919Y0083367D01*
X0051695Y0085241D01*
X0051695Y0087270D01*
X0050919Y0089145D01*
X0049484Y0090579D01*
X0047851Y0091256D01*
X0049484Y0091932D01*
X0050919Y0093367D01*
X0051695Y0095241D01*
X0051695Y0097270D01*
X0050919Y0099145D01*
X0049484Y0100579D01*
X0047851Y0101256D01*
X0050183Y0099880D02*
X0152438Y0099880D01*
X0151360Y0098282D02*
X0051276Y0098282D01*
X0051695Y0096683D02*
X0151214Y0096683D01*
X0151985Y0095085D02*
X0051630Y0095085D01*
X0050968Y0093486D02*
X0152395Y0093486D01*
X0152395Y0091888D02*
X0049376Y0091888D01*
X0049774Y0090289D02*
X0076923Y0090289D01*
X0074947Y0088691D02*
X0051107Y0088691D01*
X0051695Y0087092D02*
X0074216Y0087092D01*
X0074045Y0085494D02*
X0051695Y0085494D01*
X0051137Y0083895D02*
X0074350Y0083895D01*
X0075271Y0082297D02*
X0049848Y0082297D01*
X0049198Y0080698D02*
X0077707Y0080698D01*
X0075356Y0079100D02*
X0050937Y0079100D01*
X0051600Y0077501D02*
X0074385Y0077501D01*
X0074045Y0075903D02*
X0051695Y0075903D01*
X0051307Y0074304D02*
X0074181Y0074304D01*
X0074862Y0072706D02*
X0050257Y0072706D01*
X0048210Y0071107D02*
X0076719Y0071107D01*
X0075765Y0069509D02*
X0050555Y0069509D01*
X0051430Y0067910D02*
X0074555Y0067910D01*
X0074045Y0066312D02*
X0051695Y0066312D01*
X0051476Y0064713D02*
X0074045Y0064713D01*
X0074673Y0063114D02*
X0050666Y0063114D01*
X0048479Y0061516D02*
X0076052Y0061516D01*
X0082338Y0061516D02*
X0083395Y0061516D01*
X0083395Y0059917D02*
X0050146Y0059917D01*
X0051261Y0058319D02*
X0083395Y0058319D01*
X0083395Y0056720D02*
X0051695Y0056720D01*
X0051646Y0055122D02*
X0082708Y0055122D01*
X0082214Y0053523D02*
X0050983Y0053523D01*
X0051483Y0051925D02*
X0049466Y0051925D01*
X0050379Y0050326D02*
X0041645Y0050326D01*
X0041645Y0048728D02*
X0050214Y0048728D01*
X0050940Y0047129D02*
X0041645Y0047129D01*
X0041645Y0045531D02*
X0162187Y0045531D01*
X0162724Y0047129D02*
X0093580Y0047129D01*
X0095178Y0048728D02*
X0161092Y0048728D01*
X0160430Y0050326D02*
X0096777Y0050326D01*
X0098375Y0051925D02*
X0105643Y0051925D01*
X0104504Y0053523D02*
X0101644Y0053523D01*
X0102785Y0055122D02*
X0104045Y0055122D01*
X0104062Y0056720D02*
X0102976Y0056720D01*
X0099595Y0056256D02*
X0092595Y0049256D01*
X0053595Y0049256D01*
X0055708Y0051925D02*
X0082487Y0051925D01*
X0085595Y0053256D02*
X0085595Y0075256D01*
X0084595Y0076256D01*
X0079795Y0076256D01*
X0079195Y0075656D01*
X0083035Y0079100D02*
X0105356Y0079100D01*
X0104385Y0077501D02*
X0086461Y0077501D01*
X0087795Y0075903D02*
X0104045Y0075903D01*
X0104181Y0074304D02*
X0087795Y0074304D01*
X0087795Y0072706D02*
X0104862Y0072706D01*
X0106719Y0071107D02*
X0087795Y0071107D01*
X0087795Y0069509D02*
X0105765Y0069509D01*
X0104555Y0067910D02*
X0087795Y0067910D01*
X0089595Y0064256D02*
X0097595Y0064256D01*
X0100595Y0061256D01*
X0103595Y0061256D01*
X0104045Y0064713D02*
X0100249Y0064713D01*
X0098651Y0066312D02*
X0104045Y0066312D01*
X0111671Y0071107D02*
X0126077Y0071107D01*
X0126444Y0071474D02*
X0125277Y0070307D01*
X0124645Y0068781D01*
X0124645Y0067130D01*
X0125277Y0065605D01*
X0126444Y0064438D01*
X0127970Y0063806D01*
X0129621Y0063806D01*
X0131146Y0064438D01*
X0132313Y0065605D01*
X0132945Y0067130D01*
X0132945Y0068781D01*
X0132313Y0070307D01*
X0131146Y0071474D01*
X0129621Y0072106D01*
X0127970Y0072106D01*
X0126444Y0071474D01*
X0124946Y0069509D02*
X0112626Y0069509D01*
X0113836Y0067910D02*
X0124645Y0067910D01*
X0124984Y0066312D02*
X0114345Y0066312D01*
X0114345Y0064713D02*
X0126169Y0064713D01*
X0131421Y0064713D02*
X0139169Y0064713D01*
X0137984Y0066312D02*
X0132606Y0066312D01*
X0132945Y0067910D02*
X0137645Y0067910D01*
X0137946Y0069509D02*
X0132644Y0069509D01*
X0131513Y0071107D02*
X0139077Y0071107D01*
X0140970Y0073606D02*
X0142621Y0073606D01*
X0144146Y0074238D01*
X0145313Y0075405D01*
X0145945Y0076930D01*
X0145945Y0078581D01*
X0145313Y0080107D01*
X0144146Y0081274D01*
X0142621Y0081906D01*
X0140970Y0081906D01*
X0139444Y0081274D01*
X0138277Y0080107D01*
X0137645Y0078581D01*
X0137645Y0076930D01*
X0138277Y0075405D01*
X0139444Y0074238D01*
X0140970Y0073606D01*
X0139378Y0074304D02*
X0131212Y0074304D01*
X0131146Y0074238D02*
X0132313Y0075405D01*
X0132945Y0076930D01*
X0132945Y0078581D01*
X0132313Y0080107D01*
X0131146Y0081274D01*
X0129621Y0081906D01*
X0127970Y0081906D01*
X0126444Y0081274D01*
X0125277Y0080107D01*
X0124645Y0078581D01*
X0124645Y0076930D01*
X0125277Y0075405D01*
X0126444Y0074238D01*
X0127970Y0073606D01*
X0129621Y0073606D01*
X0131146Y0074238D01*
X0132519Y0075903D02*
X0138071Y0075903D01*
X0137645Y0077501D02*
X0132945Y0077501D01*
X0132730Y0079100D02*
X0137860Y0079100D01*
X0138868Y0080698D02*
X0131722Y0080698D01*
X0125868Y0080698D02*
X0110684Y0080698D01*
X0113035Y0079100D02*
X0124860Y0079100D01*
X0124645Y0077501D02*
X0114005Y0077501D01*
X0114345Y0075903D02*
X0125071Y0075903D01*
X0126378Y0074304D02*
X0114209Y0074304D01*
X0113528Y0072706D02*
X0152395Y0072706D01*
X0152395Y0074304D02*
X0144212Y0074304D01*
X0145519Y0075903D02*
X0152395Y0075903D01*
X0152395Y0077501D02*
X0145945Y0077501D01*
X0145730Y0079100D02*
X0152395Y0079100D01*
X0152395Y0080698D02*
X0144722Y0080698D01*
X0152395Y0082297D02*
X0113119Y0082297D01*
X0114040Y0083895D02*
X0152395Y0083895D01*
X0152395Y0085494D02*
X0114345Y0085494D01*
X0114175Y0087092D02*
X0152395Y0087092D01*
X0152395Y0088691D02*
X0113444Y0088691D01*
X0111467Y0090289D02*
X0152395Y0090289D01*
X0154595Y0097256D02*
X0154595Y0061256D01*
X0145692Y0056720D02*
X0163711Y0056720D01*
X0161778Y0055122D02*
X0144630Y0055122D01*
X0138960Y0055122D02*
X0131630Y0055122D01*
X0132692Y0056720D02*
X0137898Y0056720D01*
X0137645Y0058319D02*
X0132945Y0058319D01*
X0132557Y0059917D02*
X0138033Y0059917D01*
X0139286Y0061516D02*
X0131304Y0061516D01*
X0145606Y0066312D02*
X0152395Y0066312D01*
X0152395Y0067910D02*
X0145945Y0067910D01*
X0145644Y0069509D02*
X0152395Y0069509D01*
X0152395Y0071107D02*
X0144513Y0071107D01*
X0167472Y0066312D02*
X0193519Y0066312D01*
X0194109Y0066556D02*
X0192578Y0065922D01*
X0191129Y0064473D01*
X0190345Y0062580D01*
X0190345Y0060531D01*
X0191129Y0058639D01*
X0192578Y0057190D01*
X0194109Y0056556D01*
X0192578Y0055922D01*
X0191129Y0054473D01*
X0190345Y0052580D01*
X0190345Y0050531D01*
X0191129Y0048639D01*
X0192578Y0047190D01*
X0194109Y0046556D01*
X0192578Y0045922D01*
X0191129Y0044473D01*
X0190345Y0042580D01*
X0190345Y0040531D01*
X0191129Y0038639D01*
X0192578Y0037190D01*
X0194471Y0036406D01*
X0196520Y0036406D01*
X0198412Y0037190D01*
X0199861Y0038639D01*
X0200645Y0040531D01*
X0200645Y0042580D01*
X0199861Y0044473D01*
X0198412Y0045922D01*
X0196882Y0046556D01*
X0198412Y0047190D01*
X0199861Y0048639D01*
X0200645Y0050531D01*
X0200645Y0052580D01*
X0199861Y0054473D01*
X0198412Y0055922D01*
X0196882Y0056556D01*
X0198412Y0057190D01*
X0199861Y0058639D01*
X0200645Y0060531D01*
X0200645Y0062580D01*
X0199861Y0064473D01*
X0198412Y0065922D01*
X0196882Y0066556D01*
X0198412Y0067190D01*
X0199861Y0068639D01*
X0200645Y0070531D01*
X0200645Y0072580D01*
X0199861Y0074473D01*
X0198412Y0075922D01*
X0196882Y0076556D01*
X0198412Y0077190D01*
X0199861Y0078639D01*
X0200034Y0079056D01*
X0207684Y0079056D01*
X0208395Y0078345D01*
X0208395Y0034838D01*
X0207729Y0034171D01*
X0207214Y0032928D01*
X0207214Y0031583D01*
X0207729Y0030341D01*
X0208680Y0029390D01*
X0209923Y0028875D01*
X0211268Y0028875D01*
X0212510Y0029390D01*
X0213461Y0030341D01*
X0213976Y0031583D01*
X0213976Y0032928D01*
X0213461Y0034171D01*
X0212795Y0034838D01*
X0212795Y0080167D01*
X0210795Y0082167D01*
X0209506Y0083456D01*
X0200282Y0083456D01*
X0199861Y0084473D01*
X0198412Y0085922D01*
X0196882Y0086556D01*
X0198412Y0087190D01*
X0199861Y0088639D01*
X0200645Y0090531D01*
X0200645Y0092580D01*
X0199861Y0094473D01*
X0198412Y0095922D01*
X0196520Y0096706D01*
X0194471Y0096706D01*
X0192578Y0095922D01*
X0191129Y0094473D01*
X0190345Y0092580D01*
X0190345Y0090531D01*
X0191129Y0088639D01*
X0192578Y0087190D01*
X0194109Y0086556D01*
X0192578Y0085922D01*
X0191129Y0084473D01*
X0190345Y0082580D01*
X0190345Y0080531D01*
X0191129Y0078639D01*
X0192578Y0077190D01*
X0194109Y0076556D01*
X0192578Y0075922D01*
X0191129Y0074473D01*
X0190345Y0072580D01*
X0190345Y0070531D01*
X0191129Y0068639D01*
X0192578Y0067190D01*
X0194109Y0066556D01*
X0191858Y0067910D02*
X0169132Y0067910D01*
X0170221Y0069509D02*
X0190769Y0069509D01*
X0190345Y0071107D02*
X0170645Y0071107D01*
X0170593Y0072706D02*
X0190397Y0072706D01*
X0191059Y0074304D02*
X0169931Y0074304D01*
X0168432Y0075903D02*
X0192559Y0075903D01*
X0192267Y0077501D02*
X0168724Y0077501D01*
X0170052Y0079100D02*
X0190938Y0079100D01*
X0190345Y0080698D02*
X0170645Y0080698D01*
X0170645Y0082297D02*
X0190345Y0082297D01*
X0190890Y0083895D02*
X0170101Y0083895D01*
X0168841Y0085494D02*
X0192150Y0085494D01*
X0192814Y0087092D02*
X0168176Y0087092D01*
X0169883Y0088691D02*
X0191108Y0088691D01*
X0190446Y0090289D02*
X0170545Y0090289D01*
X0170645Y0091888D02*
X0190345Y0091888D01*
X0190720Y0093486D02*
X0170270Y0093486D01*
X0169250Y0095085D02*
X0191741Y0095085D01*
X0194416Y0096683D02*
X0167189Y0096683D01*
X0169504Y0098282D02*
X0241545Y0098282D01*
X0241545Y0099880D02*
X0170375Y0099880D01*
X0170645Y0101479D02*
X0241545Y0101479D01*
X0241545Y0103077D02*
X0170439Y0103077D01*
X0169658Y0104676D02*
X0241545Y0104676D01*
X0241545Y0106274D02*
X0167562Y0106274D01*
X0163429Y0106274D02*
X0051695Y0106274D01*
X0051461Y0104676D02*
X0161332Y0104676D01*
X0160551Y0103077D02*
X0050629Y0103077D01*
X0051446Y0107873D02*
X0241545Y0107873D01*
X0241545Y0109471D02*
X0050592Y0109471D01*
X0048300Y0111070D02*
X0241545Y0111070D01*
X0241545Y0112668D02*
X0041645Y0112668D01*
X0041645Y0111070D02*
X0044890Y0111070D01*
X0042598Y0109471D02*
X0041645Y0109471D01*
X0041645Y0107873D02*
X0041745Y0107873D01*
X0041645Y0114267D02*
X0241545Y0114267D01*
X0241545Y0115865D02*
X0041645Y0115865D01*
X0041645Y0117464D02*
X0233175Y0117464D01*
X0231984Y0119062D02*
X0041645Y0119062D01*
X0041645Y0120661D02*
X0231495Y0120661D01*
X0231495Y0122259D02*
X0041645Y0122259D01*
X0041645Y0123858D02*
X0232153Y0123858D01*
X0233583Y0125456D02*
X0042937Y0125456D01*
X0066595Y0099256D02*
X0066942Y0098909D01*
X0081467Y0090289D02*
X0106923Y0090289D01*
X0104947Y0088691D02*
X0083444Y0088691D01*
X0084175Y0087092D02*
X0104216Y0087092D01*
X0104045Y0085494D02*
X0084345Y0085494D01*
X0084040Y0083895D02*
X0104350Y0083895D01*
X0105271Y0082297D02*
X0083119Y0082297D01*
X0080684Y0080698D02*
X0107707Y0080698D01*
X0113886Y0053523D02*
X0160736Y0053523D01*
X0160345Y0051925D02*
X0112747Y0051925D01*
X0160345Y0042334D02*
X0041645Y0042334D01*
X0041645Y0043932D02*
X0160905Y0043932D01*
X0160345Y0040735D02*
X0049108Y0040735D01*
X0050922Y0039137D02*
X0160923Y0039137D01*
X0162230Y0037538D02*
X0051584Y0037538D01*
X0051695Y0035940D02*
X0208395Y0035940D01*
X0208395Y0037538D02*
X0198761Y0037538D01*
X0200067Y0039137D02*
X0208395Y0039137D01*
X0208395Y0040735D02*
X0200645Y0040735D01*
X0200645Y0042334D02*
X0208395Y0042334D01*
X0208395Y0043932D02*
X0200085Y0043932D01*
X0198803Y0045531D02*
X0208395Y0045531D01*
X0208395Y0047129D02*
X0198266Y0047129D01*
X0199898Y0048728D02*
X0208395Y0048728D01*
X0208395Y0050326D02*
X0200560Y0050326D01*
X0200645Y0051925D02*
X0208395Y0051925D01*
X0208395Y0053523D02*
X0200254Y0053523D01*
X0199212Y0055122D02*
X0208395Y0055122D01*
X0208395Y0056720D02*
X0197279Y0056720D01*
X0199541Y0058319D02*
X0208395Y0058319D01*
X0208395Y0059917D02*
X0200391Y0059917D01*
X0200645Y0061516D02*
X0208395Y0061516D01*
X0212795Y0061516D02*
X0231495Y0061516D01*
X0231629Y0059917D02*
X0212795Y0059917D01*
X0212795Y0058319D02*
X0232320Y0058319D01*
X0234218Y0056720D02*
X0212795Y0056720D01*
X0212795Y0055122D02*
X0233249Y0055122D01*
X0232014Y0053523D02*
X0212795Y0053523D01*
X0212795Y0051925D02*
X0231495Y0051925D01*
X0231495Y0050326D02*
X0212795Y0050326D01*
X0212795Y0048728D02*
X0232122Y0048728D01*
X0233509Y0047129D02*
X0212795Y0047129D01*
X0212795Y0045531D02*
X0241545Y0045531D01*
X0241545Y0047129D02*
X0239681Y0047129D01*
X0241068Y0048728D02*
X0241545Y0048728D01*
X0241545Y0043932D02*
X0212795Y0043932D01*
X0212795Y0042334D02*
X0241545Y0042334D01*
X0241545Y0040735D02*
X0212795Y0040735D01*
X0212795Y0039137D02*
X0241545Y0039137D01*
X0241545Y0037538D02*
X0212795Y0037538D01*
X0212795Y0035940D02*
X0241545Y0035940D01*
X0241545Y0034341D02*
X0213291Y0034341D01*
X0213976Y0032743D02*
X0241545Y0032743D01*
X0241545Y0031144D02*
X0213794Y0031144D01*
X0212667Y0029546D02*
X0241545Y0029546D01*
X0241545Y0027947D02*
X0051415Y0027947D01*
X0051695Y0026349D02*
X0241545Y0026349D01*
X0241545Y0024750D02*
X0051492Y0024750D01*
X0050703Y0023152D02*
X0241545Y0023152D01*
X0241545Y0021553D02*
X0048569Y0021553D01*
X0050109Y0019955D02*
X0241545Y0019955D01*
X0241545Y0018356D02*
X0051245Y0018356D01*
X0051695Y0016758D02*
X0241545Y0016758D01*
X0241545Y0015159D02*
X0051661Y0015159D01*
X0050999Y0013561D02*
X0241545Y0013561D01*
X0240160Y0011962D02*
X0049514Y0011962D01*
X0044629Y0010364D02*
X0238561Y0010364D01*
X0236963Y0008765D02*
X0046228Y0008765D01*
X0047826Y0007167D02*
X0235364Y0007167D01*
X0208524Y0029546D02*
X0050518Y0029546D01*
X0048121Y0031144D02*
X0207396Y0031144D01*
X0207214Y0032743D02*
X0050294Y0032743D01*
X0051322Y0034341D02*
X0207899Y0034341D01*
X0210595Y0032256D02*
X0210595Y0079256D01*
X0208595Y0081256D01*
X0195795Y0081256D01*
X0195495Y0081556D01*
X0200101Y0083895D02*
X0232168Y0083895D01*
X0231506Y0082297D02*
X0210666Y0082297D01*
X0212264Y0080698D02*
X0231495Y0080698D01*
X0231968Y0079100D02*
X0212795Y0079100D01*
X0212795Y0077501D02*
X0233137Y0077501D01*
X0234486Y0075903D02*
X0212795Y0075903D01*
X0212795Y0074304D02*
X0232431Y0074304D01*
X0231675Y0072706D02*
X0212795Y0072706D01*
X0212795Y0071107D02*
X0231495Y0071107D01*
X0231799Y0069509D02*
X0212795Y0069509D01*
X0212795Y0067910D02*
X0232729Y0067910D01*
X0235205Y0066312D02*
X0212795Y0066312D01*
X0212795Y0064713D02*
X0232840Y0064713D01*
X0231845Y0063114D02*
X0212795Y0063114D01*
X0208395Y0063114D02*
X0200424Y0063114D01*
X0199621Y0064713D02*
X0208395Y0064713D01*
X0208395Y0066312D02*
X0197472Y0066312D01*
X0199132Y0067910D02*
X0208395Y0067910D01*
X0208395Y0069509D02*
X0200221Y0069509D01*
X0200645Y0071107D02*
X0208395Y0071107D01*
X0208395Y0072706D02*
X0200593Y0072706D01*
X0199931Y0074304D02*
X0208395Y0074304D01*
X0208395Y0075903D02*
X0198432Y0075903D01*
X0198724Y0077501D02*
X0208395Y0077501D01*
X0198841Y0085494D02*
X0233620Y0085494D01*
X0233546Y0087092D02*
X0198176Y0087092D01*
X0199883Y0088691D02*
X0232137Y0088691D01*
X0231495Y0090289D02*
X0200545Y0090289D01*
X0200645Y0091888D02*
X0231495Y0091888D01*
X0231999Y0093486D02*
X0200270Y0093486D01*
X0199250Y0095085D02*
X0233211Y0095085D01*
X0239979Y0095085D02*
X0241545Y0095085D01*
X0241545Y0096683D02*
X0196574Y0096683D01*
X0241192Y0093486D02*
X0241545Y0093486D01*
X0241545Y0117464D02*
X0240016Y0117464D01*
X0241207Y0119062D02*
X0241545Y0119062D01*
X0191369Y0064713D02*
X0169621Y0064713D01*
X0170424Y0063114D02*
X0190566Y0063114D01*
X0190345Y0061516D02*
X0170645Y0061516D01*
X0170391Y0059917D02*
X0190599Y0059917D01*
X0191449Y0058319D02*
X0169541Y0058319D01*
X0167279Y0056720D02*
X0193711Y0056720D01*
X0191778Y0055122D02*
X0169212Y0055122D01*
X0170254Y0053523D02*
X0190736Y0053523D01*
X0190345Y0051925D02*
X0170645Y0051925D01*
X0170560Y0050326D02*
X0190430Y0050326D01*
X0191092Y0048728D02*
X0169898Y0048728D01*
X0168266Y0047129D02*
X0192724Y0047129D01*
X0192187Y0045531D02*
X0168803Y0045531D01*
X0170085Y0043932D02*
X0190905Y0043932D01*
X0190345Y0042334D02*
X0170645Y0042334D01*
X0170645Y0040735D02*
X0190345Y0040735D01*
X0190923Y0039137D02*
X0170067Y0039137D01*
X0168761Y0037538D02*
X0192230Y0037538D01*
X0230595Y0034256D02*
X0231595Y0034256D01*
X0044082Y0040735D02*
X0041645Y0040735D01*
X0041645Y0039137D02*
X0042268Y0039137D01*
X0041645Y0051925D02*
X0043724Y0051925D01*
X0042207Y0053523D02*
X0041645Y0053523D01*
X0041645Y0013561D02*
X0042191Y0013561D01*
X0043031Y0011962D02*
X0043676Y0011962D01*
D15*
X0053595Y0049256D03*
X0085595Y0053256D03*
X0099595Y0056256D03*
X0103595Y0061256D03*
X0089595Y0064256D03*
X0066942Y0098909D03*
X0154595Y0097256D03*
X0154595Y0061256D03*
X0210595Y0032256D03*
X0230595Y0034256D03*
M02*
